<svg width="785" height="417" viewBox="0 0 785 417" fill="none" xmlns="http://www.w3.org/2000/svg">
<path d="M0 0L205 0C221.569 0 235 13.4315 235 30V197H30C13.4315 197 0 183.569 0 167L0 0Z" fill="#0B8A48"/>
<path d="M117.058 27C98.8298 27 84 40.9066 84 58C84 75.0934 98.8298 89 117.058 89C135.286 89 150.116 75.0934 150.116 58C150.116 40.9066 135.286 27 117.058 27ZM133.587 61.1H100.529V54.9H133.587V61.1Z" fill="white"/>
<path d="M53.1282 123H49.6126L56.0135 104.818H60.0795L66.4893 123H62.9737L58.1175 108.547H57.9755L53.1282 123ZM53.2436 115.871H62.8317V118.517H53.2436V115.871ZM71.9559 104.818V123H68.7421V104.818H71.9559ZM83.9521 117.265V109.364H87.1658V123H84.0497V120.576H83.9077C83.5999 121.34 83.0939 121.964 82.3896 122.45C81.6912 122.935 80.83 123.178 79.8061 123.178C78.9124 123.178 78.1223 122.979 77.4357 122.583C76.7551 122.18 76.2224 121.597 75.8377 120.834C75.453 120.064 75.2607 119.135 75.2607 118.046V109.364H78.4744V117.549C78.4744 118.413 78.7112 119.1 79.1847 119.609C79.6581 120.118 80.2796 120.372 81.049 120.372C81.5225 120.372 81.9812 120.257 82.4251 120.026C82.869 119.795 83.233 119.452 83.517 118.996C83.8071 118.534 83.9521 117.957 83.9521 117.265ZM90.4706 123V109.364H93.5423V111.681H93.7021C93.9862 110.9 94.4568 110.29 95.1137 109.852C95.7707 109.408 96.5549 109.186 97.4664 109.186C98.3896 109.186 99.1679 109.411 99.8012 109.861C100.44 110.305 100.89 110.911 101.151 111.681H101.293C101.595 110.923 102.104 110.319 102.82 109.87C103.542 109.414 104.397 109.186 105.385 109.186C106.64 109.186 107.664 109.583 108.457 110.376C109.25 111.169 109.647 112.326 109.647 113.847V123H106.424V114.344C106.424 113.498 106.199 112.879 105.749 112.489C105.3 112.092 104.749 111.894 104.098 111.894C103.323 111.894 102.716 112.136 102.278 112.622C101.846 113.101 101.63 113.726 101.63 114.495V123H98.4784V114.211C98.4784 113.507 98.2654 112.944 97.8392 112.524C97.419 112.104 96.8686 111.894 96.1879 111.894C95.7263 111.894 95.3061 112.012 94.9273 112.249C94.5485 112.48 94.2467 112.808 94.0218 113.234C93.7968 113.655 93.6844 114.146 93.6844 114.708V123H90.4706ZM121.599 117.265V109.364H124.812V123H121.696V120.576H121.554C121.246 121.34 120.74 121.964 120.036 122.45C119.338 122.935 118.477 123.178 117.453 123.178C116.559 123.178 115.769 122.979 115.082 122.583C114.402 122.18 113.869 121.597 113.484 120.834C113.099 120.064 112.907 119.135 112.907 118.046V109.364H116.121V117.549C116.121 118.413 116.358 119.1 116.831 119.609C117.305 120.118 117.926 120.372 118.695 120.372C119.169 120.372 119.628 120.257 120.072 120.026C120.515 119.795 120.879 119.452 121.164 118.996C121.454 118.534 121.599 117.957 121.599 117.265ZM131.331 115.01V123H128.117V109.364H131.189V111.681H131.349C131.662 110.917 132.162 110.311 132.849 109.861C133.541 109.411 134.397 109.186 135.415 109.186C136.356 109.186 137.175 109.387 137.874 109.79C138.578 110.192 139.123 110.775 139.507 111.539C139.898 112.302 140.09 113.228 140.084 114.317V123H136.871V114.815C136.871 113.903 136.634 113.19 136.16 112.675C135.693 112.16 135.045 111.903 134.216 111.903C133.654 111.903 133.154 112.027 132.716 112.276C132.284 112.518 131.943 112.87 131.695 113.332C131.452 113.794 131.331 114.353 131.331 115.01ZM143.351 123V109.364H146.565V123H143.351ZM144.967 107.428C144.458 107.428 144.02 107.26 143.653 106.922C143.286 106.579 143.103 106.168 143.103 105.688C143.103 105.203 143.286 104.792 143.653 104.454C144.02 104.111 144.458 103.939 144.967 103.939C145.482 103.939 145.92 104.111 146.281 104.454C146.648 104.792 146.832 105.203 146.832 105.688C146.832 106.168 146.648 106.579 146.281 106.922C145.92 107.26 145.482 107.428 144.967 107.428ZM158.561 117.265V109.364H161.775V123H158.659V120.576H158.517C158.209 121.34 157.703 121.964 156.999 122.45C156.301 122.935 155.439 123.178 154.415 123.178C153.522 123.178 152.732 122.979 152.045 122.583C151.364 122.18 150.832 121.597 150.447 120.834C150.062 120.064 149.87 119.135 149.87 118.046V109.364H153.084V117.549C153.084 118.413 153.321 119.1 153.794 119.609C154.268 120.118 154.889 120.372 155.658 120.372C156.132 120.372 156.591 120.257 157.034 120.026C157.478 119.795 157.842 119.452 158.126 118.996C158.416 118.534 158.561 117.957 158.561 117.265ZM165.08 123V109.364H168.152V111.681H168.312C168.596 110.9 169.066 110.29 169.723 109.852C170.38 109.408 171.164 109.186 172.076 109.186C172.999 109.186 173.777 109.411 174.411 109.861C175.05 110.305 175.5 110.911 175.76 111.681H175.902C176.204 110.923 176.713 110.319 177.429 109.87C178.151 109.414 179.006 109.186 179.995 109.186C181.249 109.186 182.273 109.583 183.066 110.376C183.86 111.169 184.256 112.326 184.256 113.847V123H181.033V114.344C181.033 113.498 180.809 112.879 180.359 112.489C179.909 112.092 179.359 111.894 178.707 111.894C177.932 111.894 177.325 112.136 176.888 112.622C176.455 113.101 176.239 113.726 176.239 114.495V123H173.088V114.211C173.088 113.507 172.875 112.944 172.449 112.524C172.028 112.104 171.478 111.894 170.797 111.894C170.336 111.894 169.915 112.012 169.537 112.249C169.158 112.48 168.856 112.808 168.631 113.234C168.406 113.655 168.294 114.146 168.294 114.708V123H165.08Z" fill="white"/>
<path d="M55.598 158V143.455H60.7827C61.9096 143.455 62.8447 143.649 63.5881 144.037C64.3362 144.425 64.8949 144.963 65.2642 145.649C65.6335 146.331 65.8182 147.119 65.8182 148.014C65.8182 148.904 65.6312 149.688 65.2571 150.365C64.8878 151.037 64.3291 151.561 63.581 151.935C62.8376 152.309 61.9025 152.496 60.7756 152.496H56.848V150.607H60.5767C61.2869 150.607 61.8646 150.505 62.3097 150.301C62.7595 150.098 63.0885 149.802 63.2969 149.413C63.5052 149.025 63.6094 148.559 63.6094 148.014C63.6094 147.465 63.5028 146.989 63.2898 146.587C63.0814 146.184 62.7524 145.876 62.3026 145.663C61.8575 145.446 61.2727 145.337 60.5483 145.337H57.7926V158H55.598ZM62.7784 151.438L66.3722 158H63.8722L60.3494 151.438H62.7784ZM68.3182 162.091V147.091H70.392V148.859H70.5696C70.6927 148.632 70.8703 148.369 71.1023 148.071C71.3343 147.773 71.6563 147.512 72.0682 147.29C72.4801 147.062 73.0246 146.949 73.7017 146.949C74.5824 146.949 75.3684 147.171 76.0597 147.616C76.7509 148.062 77.2931 148.703 77.6861 149.541C78.0838 150.379 78.2827 151.388 78.2827 152.567C78.2827 153.746 78.0862 154.757 77.6932 155.599C77.3002 156.437 76.7604 157.084 76.0739 157.538C75.3873 157.988 74.6037 158.213 73.723 158.213C73.0601 158.213 72.518 158.102 72.0966 157.879C71.6799 157.657 71.3532 157.396 71.1165 157.098C70.8797 156.8 70.6974 156.535 70.5696 156.303H70.4418V162.091H68.3182ZM70.3991 152.545C70.3991 153.312 70.5104 153.985 70.733 154.562C70.9555 155.14 71.2775 155.592 71.6989 155.919C72.1203 156.241 72.6364 156.402 73.2472 156.402C73.8816 156.402 74.4119 156.234 74.8381 155.898C75.2642 155.557 75.5862 155.095 75.804 154.513C76.0265 153.93 76.1378 153.275 76.1378 152.545C76.1378 151.826 76.0289 151.179 75.8111 150.607C75.598 150.034 75.276 149.581 74.8452 149.25C74.419 148.919 73.8864 148.753 73.2472 148.753C72.6316 148.753 72.1108 148.911 71.6847 149.229C71.2633 149.546 70.9437 149.989 70.7259 150.557C70.508 151.125 70.3991 151.788 70.3991 152.545ZM91.445 143.455V158H89.2433V145.656H89.158L85.6779 147.929V145.827L89.3072 143.455H91.445ZM100.444 158.199C99.4682 158.199 98.5969 158.031 97.8299 157.695C97.0676 157.358 96.4639 156.892 96.0188 156.295C95.5785 155.694 95.3417 154.998 95.3086 154.207H97.5387C97.5671 154.638 97.7115 155.012 97.9719 155.33C98.2371 155.642 98.5827 155.884 99.0089 156.054C99.435 156.224 99.9085 156.31 100.429 156.31C101.002 156.31 101.509 156.21 101.949 156.011C102.394 155.812 102.742 155.536 102.993 155.18C103.244 154.821 103.37 154.406 103.37 153.938C103.37 153.45 103.244 153.021 102.993 152.652C102.747 152.278 102.385 151.984 101.907 151.771C101.433 151.558 100.86 151.452 100.188 151.452H98.9592V149.662H100.188C100.728 149.662 101.201 149.565 101.608 149.371C102.02 149.177 102.342 148.907 102.574 148.561C102.806 148.211 102.922 147.801 102.922 147.332C102.922 146.883 102.82 146.492 102.617 146.161C102.418 145.824 102.134 145.562 101.765 145.372C101.4 145.183 100.969 145.088 100.472 145.088C99.9985 145.088 99.5558 145.176 99.1438 145.351C98.7366 145.521 98.4052 145.768 98.1495 146.089C97.8938 146.407 97.7565 146.788 97.7376 147.233H95.614C95.6377 146.447 95.8697 145.756 96.31 145.159C96.7551 144.562 97.3422 144.096 98.0714 143.76C98.8005 143.424 99.6102 143.256 100.5 143.256C101.433 143.256 102.238 143.438 102.915 143.803C103.597 144.162 104.123 144.643 104.492 145.244C104.866 145.846 105.051 146.504 105.046 147.219C105.051 148.033 104.823 148.724 104.364 149.293C103.909 149.861 103.303 150.242 102.546 150.436V150.55C103.512 150.696 104.26 151.08 104.79 151.7C105.325 152.321 105.59 153.09 105.586 154.009C105.59 154.809 105.368 155.526 104.918 156.161C104.473 156.795 103.864 157.295 103.093 157.659C102.321 158.019 101.438 158.199 100.444 158.199ZM109.268 158.135C108.88 158.135 108.546 157.998 108.267 157.723C107.987 157.444 107.848 157.107 107.848 156.714C107.848 156.326 107.987 155.995 108.267 155.72C108.546 155.441 108.88 155.301 109.268 155.301C109.656 155.301 109.99 155.441 110.27 155.72C110.549 155.995 110.689 156.326 110.689 156.714C110.689 156.975 110.622 157.214 110.49 157.432C110.362 157.645 110.191 157.815 109.978 157.943C109.765 158.071 109.529 158.135 109.268 158.135ZM118.041 158.241C116.919 158.237 115.96 157.941 115.165 157.354C114.369 156.767 113.761 155.912 113.339 154.79C112.918 153.668 112.707 152.316 112.707 150.734C112.707 149.158 112.918 147.811 113.339 146.693C113.766 145.576 114.376 144.723 115.172 144.136C115.972 143.549 116.929 143.256 118.041 143.256C119.154 143.256 120.108 143.552 120.903 144.143C121.699 144.731 122.307 145.583 122.729 146.7C123.155 147.813 123.368 149.158 123.368 150.734C123.368 152.321 123.157 153.675 122.736 154.797C122.314 155.914 121.706 156.769 120.911 157.361C120.115 157.948 119.159 158.241 118.041 158.241ZM118.041 156.345C119.026 156.345 119.795 155.865 120.349 154.903C120.908 153.942 121.188 152.553 121.188 150.734C121.188 149.527 121.06 148.507 120.804 147.673C120.553 146.835 120.191 146.201 119.717 145.77C119.249 145.334 118.69 145.116 118.041 145.116C117.061 145.116 116.292 145.599 115.733 146.565C115.174 147.531 114.893 148.921 114.888 150.734C114.888 151.946 115.013 152.972 115.264 153.81C115.52 154.643 115.882 155.275 116.351 155.706C116.82 156.132 117.383 156.345 118.041 156.345ZM130.951 158.241C129.829 158.237 128.87 157.941 128.075 157.354C127.279 156.767 126.671 155.912 126.25 154.79C125.828 153.668 125.618 152.316 125.618 150.734C125.618 149.158 125.828 147.811 126.25 146.693C126.676 145.576 127.287 144.723 128.082 144.136C128.882 143.549 129.839 143.256 130.951 143.256C132.064 143.256 133.018 143.552 133.814 144.143C134.609 144.731 135.217 145.583 135.639 146.7C136.065 147.813 136.278 149.158 136.278 150.734C136.278 152.321 136.067 153.675 135.646 154.797C135.225 155.914 134.616 156.769 133.821 157.361C133.025 157.948 132.069 158.241 130.951 158.241ZM130.951 156.345C131.936 156.345 132.706 155.865 133.26 154.903C133.818 153.942 134.098 152.553 134.098 150.734C134.098 149.527 133.97 148.507 133.714 147.673C133.463 146.835 133.101 146.201 132.627 145.77C132.159 145.334 131.6 145.116 130.951 145.116C129.971 145.116 129.202 145.599 128.643 146.565C128.084 147.531 127.803 148.921 127.798 150.734C127.798 151.946 127.923 152.972 128.174 153.81C128.43 154.643 128.792 155.275 129.261 155.706C129.73 156.132 130.293 156.345 130.951 156.345ZM143.862 158.241C142.739 158.237 141.781 157.941 140.985 157.354C140.19 156.767 139.581 155.912 139.16 154.79C138.738 153.668 138.528 152.316 138.528 150.734C138.528 149.158 138.738 147.811 139.16 146.693C139.586 145.576 140.197 144.723 140.992 144.136C141.792 143.549 142.749 143.256 143.862 143.256C144.974 143.256 145.928 143.552 146.724 144.143C147.519 144.731 148.128 145.583 148.549 146.7C148.975 147.813 149.188 149.158 149.188 150.734C149.188 152.321 148.978 153.675 148.556 154.797C148.135 155.914 147.526 156.769 146.731 157.361C145.935 157.948 144.979 158.241 143.862 158.241ZM143.862 156.345C144.846 156.345 145.616 155.865 146.17 154.903C146.728 153.942 147.008 152.553 147.008 150.734C147.008 149.527 146.88 148.507 146.624 147.673C146.373 146.835 146.011 146.201 145.538 145.77C145.069 145.334 144.51 145.116 143.862 145.116C142.881 145.116 142.112 145.599 141.553 146.565C140.995 147.531 140.713 148.921 140.708 150.734C140.708 151.946 140.834 152.972 141.085 153.81C141.34 154.643 141.702 155.275 142.171 155.706C142.64 156.132 143.203 156.345 143.862 156.345ZM157.276 142.773L152.588 160.188H150.692L155.38 142.773H157.276ZM161.033 154.3L161.019 151.707H161.388L165.735 147.091H168.277L163.32 152.347H162.986L161.033 154.3ZM159.08 158V143.455H161.203V158H159.08ZM165.969 158L162.063 152.815L163.526 151.331L168.576 158H165.969ZM174.337 162.318C173.471 162.318 172.725 162.205 172.1 161.977C171.48 161.75 170.973 161.449 170.58 161.075C170.187 160.701 169.894 160.292 169.7 159.847L171.525 159.094C171.653 159.302 171.823 159.522 172.036 159.754C172.254 159.991 172.548 160.192 172.917 160.358C173.291 160.524 173.772 160.607 174.359 160.607C175.164 160.607 175.829 160.41 176.354 160.017C176.88 159.629 177.143 159.009 177.143 158.156V156.011H177.008C176.88 156.243 176.695 156.501 176.454 156.786C176.217 157.07 175.89 157.316 175.474 157.524C175.057 157.732 174.515 157.837 173.847 157.837C172.986 157.837 172.209 157.635 171.518 157.233C170.831 156.826 170.287 156.227 169.884 155.436C169.487 154.641 169.288 153.663 169.288 152.503C169.288 151.343 169.484 150.348 169.877 149.52C170.275 148.691 170.819 148.057 171.511 147.616C172.202 147.171 172.986 146.949 173.862 146.949C174.539 146.949 175.085 147.062 175.502 147.29C175.919 147.512 176.243 147.773 176.475 148.071C176.712 148.369 176.894 148.632 177.022 148.859H177.178V147.091H179.259V158.241C179.259 159.179 179.041 159.948 178.606 160.55C178.17 161.151 177.581 161.596 176.837 161.885C176.099 162.174 175.265 162.318 174.337 162.318ZM174.316 156.075C174.927 156.075 175.443 155.933 175.864 155.649C176.29 155.36 176.612 154.948 176.83 154.413C177.053 153.874 177.164 153.227 177.164 152.474C177.164 151.741 177.055 151.094 176.837 150.536C176.62 149.977 176.3 149.541 175.879 149.229C175.457 148.911 174.936 148.753 174.316 148.753C173.677 148.753 173.144 148.919 172.718 149.25C172.292 149.577 171.97 150.022 171.752 150.585C171.539 151.149 171.433 151.778 171.433 152.474C171.433 153.189 171.541 153.817 171.759 154.357C171.977 154.896 172.299 155.318 172.725 155.621C173.156 155.924 173.686 156.075 174.316 156.075Z" fill="white"/>
<path d="M550 2H755C771.569 2 785 15.4315 785 32V199H580C563.431 199 550 185.569 550 169V2Z" fill="#0B8A48"/>
<path d="M638.793 125V106.818H642.087V115.172H642.309L649.402 106.818H653.424L646.393 114.977L653.486 125H649.527L644.102 117.205L642.087 119.585V125H638.793ZM659.494 125.275C658.63 125.275 657.852 125.121 657.159 124.814C656.473 124.5 655.928 124.038 655.526 123.429C655.129 122.819 654.931 122.067 654.931 121.174C654.931 120.404 655.073 119.768 655.357 119.265C655.641 118.762 656.029 118.359 656.52 118.058C657.011 117.756 657.565 117.528 658.18 117.374C658.802 117.214 659.444 117.099 660.107 117.028C660.906 116.945 661.554 116.871 662.051 116.806C662.548 116.735 662.909 116.628 663.134 116.486C663.365 116.338 663.48 116.11 663.48 115.803V115.749C663.48 115.08 663.282 114.563 662.886 114.196C662.489 113.829 661.918 113.645 661.172 113.645C660.385 113.645 659.761 113.817 659.299 114.16C658.843 114.503 658.535 114.909 658.376 115.376L655.375 114.95C655.612 114.122 656.002 113.429 656.547 112.873C657.091 112.311 657.757 111.89 658.544 111.612C659.331 111.328 660.201 111.186 661.154 111.186C661.811 111.186 662.465 111.263 663.116 111.417C663.767 111.571 664.362 111.825 664.901 112.18C665.439 112.53 665.871 113.006 666.197 113.61C666.528 114.213 666.694 114.968 666.694 115.874V125H663.605V123.127H663.498C663.303 123.506 663.028 123.861 662.672 124.192C662.323 124.518 661.882 124.781 661.35 124.982C660.823 125.178 660.204 125.275 659.494 125.275ZM660.329 122.914C660.974 122.914 661.533 122.786 662.007 122.532C662.48 122.272 662.844 121.928 663.099 121.502C663.359 121.076 663.489 120.611 663.489 120.108V118.501C663.389 118.584 663.217 118.661 662.974 118.732C662.738 118.803 662.471 118.865 662.175 118.919C661.879 118.972 661.586 119.019 661.296 119.061C661.006 119.102 660.755 119.138 660.542 119.167C660.062 119.232 659.633 119.339 659.255 119.487C658.876 119.635 658.577 119.842 658.358 120.108C658.139 120.369 658.029 120.706 658.029 121.12C658.029 121.712 658.245 122.159 658.677 122.461C659.11 122.763 659.66 122.914 660.329 122.914ZM675.874 125.266C674.513 125.266 673.344 124.967 672.367 124.37C671.396 123.772 670.648 122.946 670.121 121.893C669.6 120.833 669.34 119.614 669.34 118.235C669.34 116.85 669.606 115.628 670.139 114.569C670.671 113.503 671.423 112.675 672.394 112.083C673.37 111.485 674.524 111.186 675.856 111.186C676.963 111.186 677.942 111.39 678.795 111.799C679.653 112.201 680.336 112.772 680.845 113.512C681.354 114.246 681.644 115.104 681.715 116.087H678.644C678.519 115.43 678.224 114.882 677.756 114.444C677.294 114 676.676 113.778 675.9 113.778C675.244 113.778 674.666 113.956 674.169 114.311C673.672 114.66 673.284 115.163 673.006 115.82C672.734 116.477 672.598 117.264 672.598 118.182C672.598 119.111 672.734 119.91 673.006 120.579C673.279 121.242 673.66 121.754 674.152 122.115C674.649 122.47 675.232 122.647 675.9 122.647C676.374 122.647 676.797 122.559 677.17 122.381C677.549 122.198 677.865 121.934 678.12 121.591C678.374 121.248 678.549 120.83 678.644 120.339H681.715C681.639 121.304 681.354 122.159 680.863 122.905C680.372 123.645 679.703 124.225 678.857 124.645C678.01 125.059 677.016 125.266 675.874 125.266ZM688.278 125.275C687.414 125.275 686.636 125.121 685.944 124.814C685.257 124.5 684.712 124.038 684.31 123.429C683.913 122.819 683.715 122.067 683.715 121.174C683.715 120.404 683.857 119.768 684.141 119.265C684.425 118.762 684.813 118.359 685.304 118.058C685.796 117.756 686.349 117.528 686.964 117.374C687.586 117.214 688.228 117.099 688.891 117.028C689.69 116.945 690.338 116.871 690.835 116.806C691.332 116.735 691.693 116.628 691.918 116.486C692.149 116.338 692.265 116.11 692.265 115.803V115.749C692.265 115.08 692.066 114.563 691.67 114.196C691.273 113.829 690.702 113.645 689.956 113.645C689.169 113.645 688.545 113.817 688.083 114.16C687.627 114.503 687.32 114.909 687.16 115.376L684.159 114.95C684.396 114.122 684.786 113.429 685.331 112.873C685.875 112.311 686.541 111.89 687.328 111.612C688.116 111.328 688.986 111.186 689.939 111.186C690.596 111.186 691.25 111.263 691.901 111.417C692.552 111.571 693.146 111.825 693.685 112.18C694.224 112.53 694.656 113.006 694.981 113.61C695.313 114.213 695.478 114.968 695.478 115.874V125H692.389V123.127H692.282C692.087 123.506 691.812 123.861 691.457 124.192C691.107 124.518 690.667 124.781 690.134 124.982C689.607 125.178 688.989 125.275 688.278 125.275ZM689.113 122.914C689.758 122.914 690.317 122.786 690.791 122.532C691.264 122.272 691.628 121.928 691.883 121.502C692.143 121.076 692.273 120.611 692.273 120.108V118.501C692.173 118.584 692.001 118.661 691.759 118.732C691.522 118.803 691.255 118.865 690.96 118.919C690.664 118.972 690.371 119.019 690.081 119.061C689.791 119.102 689.539 119.138 689.326 119.167C688.847 119.232 688.417 119.339 688.039 119.487C687.66 119.635 687.361 119.842 687.142 120.108C686.923 120.369 686.814 120.706 686.814 121.12C686.814 121.712 687.03 122.159 687.462 122.461C687.894 122.763 688.444 122.914 689.113 122.914Z" fill="white"/>
<path d="M610.598 160V145.455H615.783C616.91 145.455 617.845 145.649 618.588 146.037C619.336 146.425 619.895 146.963 620.264 147.649C620.634 148.331 620.818 149.119 620.818 150.014C620.818 150.904 620.631 151.688 620.257 152.365C619.888 153.037 619.329 153.561 618.581 153.935C617.838 154.309 616.902 154.496 615.776 154.496H611.848V152.607H615.577C616.287 152.607 616.865 152.505 617.31 152.301C617.759 152.098 618.089 151.802 618.297 151.413C618.505 151.025 618.609 150.559 618.609 150.014C618.609 149.465 618.503 148.989 618.29 148.587C618.081 148.184 617.752 147.876 617.303 147.663C616.857 147.446 616.273 147.337 615.548 147.337H612.793V160H610.598ZM617.778 153.438L621.372 160H618.872L615.349 153.438H617.778ZM623.318 164.091V149.091H625.392V150.859H625.57C625.693 150.632 625.87 150.369 626.102 150.071C626.334 149.773 626.656 149.512 627.068 149.29C627.48 149.062 628.025 148.949 628.702 148.949C629.582 148.949 630.368 149.171 631.06 149.616C631.751 150.062 632.293 150.703 632.686 151.541C633.084 152.379 633.283 153.388 633.283 154.567C633.283 155.746 633.086 156.757 632.693 157.599C632.3 158.437 631.76 159.084 631.074 159.538C630.387 159.988 629.604 160.213 628.723 160.213C628.06 160.213 627.518 160.102 627.097 159.879C626.68 159.657 626.353 159.396 626.116 159.098C625.88 158.8 625.697 158.535 625.57 158.303H625.442V164.091H623.318ZM625.399 154.545C625.399 155.312 625.51 155.985 625.733 156.562C625.955 157.14 626.277 157.592 626.699 157.919C627.12 158.241 627.636 158.402 628.247 158.402C628.882 158.402 629.412 158.234 629.838 157.898C630.264 157.557 630.586 157.095 630.804 156.513C631.027 155.93 631.138 155.275 631.138 154.545C631.138 153.826 631.029 153.179 630.811 152.607C630.598 152.034 630.276 151.581 629.845 151.25C629.419 150.919 628.886 150.753 628.247 150.753C627.632 150.753 627.111 150.911 626.685 151.229C626.263 151.546 625.944 151.989 625.726 152.557C625.508 153.125 625.399 153.788 625.399 154.545ZM640.926 160V158.409L645.848 153.31C646.374 152.756 646.807 152.27 647.148 151.854C647.494 151.432 647.752 151.032 647.922 150.653C648.093 150.275 648.178 149.872 648.178 149.446C648.178 148.963 648.064 148.546 647.837 148.196C647.61 147.841 647.3 147.569 646.907 147.379C646.514 147.185 646.071 147.088 645.578 147.088C645.058 147.088 644.603 147.195 644.215 147.408C643.827 147.621 643.528 147.921 643.32 148.31C643.112 148.698 643.007 149.152 643.007 149.673H640.912C640.912 148.788 641.116 148.014 641.523 147.351C641.93 146.688 642.489 146.174 643.199 145.81C643.909 145.44 644.717 145.256 645.621 145.256C646.535 145.256 647.34 145.438 648.036 145.803C648.737 146.162 649.283 146.655 649.676 147.28C650.069 147.9 650.266 148.601 650.266 149.382C650.266 149.922 650.164 150.45 649.961 150.966C649.762 151.482 649.414 152.057 648.917 152.692C648.419 153.321 647.728 154.086 646.843 154.986L643.952 158.011V158.118H650.5V160H640.926ZM654.62 160.135C654.231 160.135 653.898 159.998 653.618 159.723C653.339 159.444 653.199 159.107 653.199 158.714C653.199 158.326 653.339 157.995 653.618 157.72C653.898 157.441 654.231 157.301 654.62 157.301C655.008 157.301 655.342 157.441 655.621 157.72C655.9 157.995 656.04 158.326 656.04 158.714C656.04 158.975 655.974 159.214 655.841 159.432C655.713 159.645 655.543 159.815 655.33 159.943C655.117 160.071 654.88 160.135 654.62 160.135ZM663.393 160.241C662.271 160.237 661.312 159.941 660.516 159.354C659.721 158.767 659.112 157.912 658.691 156.79C658.27 155.668 658.059 154.316 658.059 152.734C658.059 151.158 658.27 149.811 658.691 148.693C659.117 147.576 659.728 146.723 660.523 146.136C661.324 145.549 662.28 145.256 663.393 145.256C664.505 145.256 665.46 145.552 666.255 146.143C667.05 146.731 667.659 147.583 668.08 148.7C668.506 149.813 668.719 151.158 668.719 152.734C668.719 154.321 668.509 155.675 668.087 156.797C667.666 157.914 667.058 158.769 666.262 159.361C665.467 159.948 664.51 160.241 663.393 160.241ZM663.393 158.345C664.378 158.345 665.147 157.865 665.701 156.903C666.26 155.942 666.539 154.553 666.539 152.734C666.539 151.527 666.411 150.507 666.156 149.673C665.905 148.835 665.542 148.201 665.069 147.77C664.6 147.334 664.041 147.116 663.393 147.116C662.413 147.116 661.643 147.599 661.085 148.565C660.526 149.531 660.244 150.921 660.239 152.734C660.239 153.946 660.365 154.972 660.616 155.81C660.871 156.643 661.234 157.275 661.702 157.706C662.171 158.132 662.735 158.345 663.393 158.345ZM676.303 160.241C675.181 160.237 674.222 159.941 673.426 159.354C672.631 158.767 672.023 157.912 671.601 156.79C671.18 155.668 670.969 154.316 670.969 152.734C670.969 151.158 671.18 149.811 671.601 148.693C672.027 147.576 672.638 146.723 673.434 146.136C674.234 145.549 675.19 145.256 676.303 145.256C677.416 145.256 678.37 145.552 679.165 146.143C679.961 146.731 680.569 147.583 680.99 148.7C681.417 149.813 681.63 151.158 681.63 152.734C681.63 154.321 681.419 155.675 680.998 156.797C680.576 157.914 679.968 158.769 679.172 159.361C678.377 159.948 677.42 160.241 676.303 160.241ZM676.303 158.345C677.288 158.345 678.057 157.865 678.611 156.903C679.17 155.942 679.449 154.553 679.449 152.734C679.449 151.527 679.321 150.507 679.066 149.673C678.815 148.835 678.453 148.201 677.979 147.77C677.51 147.334 676.952 147.116 676.303 147.116C675.323 147.116 674.553 147.599 673.995 148.565C673.436 149.531 673.154 150.921 673.15 152.734C673.15 153.946 673.275 154.972 673.526 155.81C673.782 156.643 674.144 157.275 674.613 157.706C675.081 158.132 675.645 158.345 676.303 158.345ZM689.213 160.241C688.091 160.237 687.132 159.941 686.337 159.354C685.541 158.767 684.933 157.912 684.511 156.79C684.09 155.668 683.879 154.316 683.879 152.734C683.879 151.158 684.09 149.811 684.511 148.693C684.938 147.576 685.548 146.723 686.344 146.136C687.144 145.549 688.1 145.256 689.213 145.256C690.326 145.256 691.28 145.552 692.075 146.143C692.871 146.731 693.479 147.583 693.901 148.7C694.327 149.813 694.54 151.158 694.54 152.734C694.54 154.321 694.329 155.675 693.908 156.797C693.486 157.914 692.878 158.769 692.082 159.361C691.287 159.948 690.33 160.241 689.213 160.241ZM689.213 158.345C690.198 158.345 690.967 157.865 691.521 156.903C692.08 155.942 692.359 154.553 692.359 152.734C692.359 151.527 692.232 150.507 691.976 149.673C691.725 148.835 691.363 148.201 690.889 147.77C690.42 147.334 689.862 147.116 689.213 147.116C688.233 147.116 687.464 147.599 686.905 148.565C686.346 149.531 686.064 150.921 686.06 152.734C686.06 153.946 686.185 154.972 686.436 155.81C686.692 156.643 687.054 157.275 687.523 157.706C687.991 158.132 688.555 158.345 689.213 158.345ZM702.627 144.773L697.94 162.188H696.044L700.731 144.773H702.627ZM706.385 156.3L706.37 153.707H706.74L711.086 149.091H713.629L708.672 154.347H708.338L706.385 156.3ZM704.431 160V145.455H706.555V160H704.431ZM711.321 160L707.414 154.815L708.877 153.331L713.927 160H711.321ZM719.689 164.318C718.822 164.318 718.077 164.205 717.452 163.977C716.831 163.75 716.325 163.449 715.932 163.075C715.539 162.701 715.245 162.292 715.051 161.847L716.876 161.094C717.004 161.302 717.175 161.522 717.388 161.754C717.606 161.991 717.899 162.192 718.268 162.358C718.643 162.524 719.123 162.607 719.71 162.607C720.515 162.607 721.18 162.41 721.706 162.017C722.232 161.629 722.494 161.009 722.494 160.156V158.011H722.359C722.232 158.243 722.047 158.501 721.805 158.786C721.569 159.07 721.242 159.316 720.825 159.524C720.409 159.732 719.866 159.837 719.199 159.837C718.337 159.837 717.561 159.635 716.869 159.233C716.183 158.826 715.638 158.227 715.236 157.436C714.838 156.641 714.639 155.663 714.639 154.503C714.639 153.343 714.836 152.348 715.229 151.52C715.626 150.691 716.171 150.057 716.862 149.616C717.554 149.171 718.337 148.949 719.213 148.949C719.89 148.949 720.437 149.062 720.854 149.29C721.27 149.512 721.595 149.773 721.827 150.071C722.063 150.369 722.246 150.632 722.374 150.859H722.53V149.091H724.611V160.241C724.611 161.179 724.393 161.948 723.957 162.55C723.522 163.151 722.932 163.596 722.189 163.885C721.45 164.174 720.617 164.318 719.689 164.318ZM719.668 158.075C720.278 158.075 720.795 157.933 721.216 157.649C721.642 157.36 721.964 156.948 722.182 156.413C722.404 155.874 722.516 155.227 722.516 154.474C722.516 153.741 722.407 153.094 722.189 152.536C721.971 151.977 721.652 151.541 721.23 151.229C720.809 150.911 720.288 150.753 719.668 150.753C719.028 150.753 718.496 150.919 718.07 151.25C717.643 151.577 717.321 152.022 717.104 152.585C716.891 153.149 716.784 153.778 716.784 154.474C716.784 155.189 716.893 155.817 717.111 156.357C717.329 156.896 717.651 157.318 718.077 157.621C718.508 157.924 719.038 158.075 719.668 158.075Z" fill="white"/>
<path d="M658.409 84.8H677.024V91H658.409V84.8ZM682.937 65.3072C686.132 61.5686 689.433 57.7029 689.433 50.7C689.433 38.7371 679.688 29 667.716 29C655.744 29 646 38.7371 646 50.7C646 57.7835 649.31 61.6368 652.518 65.363C653.629 66.6588 654.78 68.0011 655.881 69.5449C656.328 70.1835 657.06 72.6325 657.714 75.5H655.307V81.7H658.912H676.518H680.126V75.5H677.725C678.385 72.6263 679.121 70.1711 679.564 69.5325C680.656 67.9732 681.817 66.6185 682.937 65.3072ZM674.486 65.9675C673.139 67.8802 672.016 72.4 671.365 75.5H664.071C663.423 72.3938 662.297 67.8647 660.935 65.952C659.672 64.1788 658.372 62.6629 657.224 61.3268C654.203 57.8114 652.205 55.4864 652.205 50.7C652.205 42.1533 659.163 35.2 667.716 35.2C676.27 35.2 683.228 42.1533 683.228 50.7C683.228 55.4151 681.233 57.7494 678.218 61.2803C677.061 62.6381 675.748 64.1726 674.486 65.9675Z" fill="white"/>
<path d="M275 2H480C496.569 2 510 15.4315 510 32V199H305C288.431 199 275 185.569 275 169V2Z" fill="#0B8A48"/>
<path d="M322.793 120V101.818H329.754C331.067 101.818 332.159 102.025 333.029 102.44C333.905 102.848 334.559 103.407 334.991 104.118C335.429 104.828 335.648 105.633 335.648 106.532C335.648 107.272 335.506 107.905 335.222 108.432C334.938 108.953 334.556 109.376 334.077 109.702C333.598 110.027 333.062 110.261 332.47 110.403V110.581C333.115 110.616 333.734 110.814 334.326 111.175C334.923 111.531 335.412 112.034 335.79 112.685C336.169 113.336 336.359 114.123 336.359 115.046C336.359 115.987 336.131 116.834 335.675 117.585C335.219 118.331 334.533 118.92 333.615 119.352C332.698 119.784 331.544 120 330.153 120H322.793ZM326.087 117.248H329.629C330.825 117.248 331.686 117.02 332.213 116.564C332.745 116.103 333.012 115.511 333.012 114.789C333.012 114.25 332.879 113.765 332.612 113.333C332.346 112.895 331.967 112.551 331.476 112.303C330.985 112.048 330.399 111.921 329.718 111.921H326.087V117.248ZM326.087 109.551H329.345C329.913 109.551 330.425 109.447 330.881 109.24C331.337 109.027 331.695 108.728 331.955 108.343C332.222 107.953 332.355 107.491 332.355 106.958C332.355 106.254 332.106 105.674 331.609 105.218C331.118 104.763 330.387 104.535 329.416 104.535H326.087V109.551ZM345.119 120.266C343.752 120.266 342.571 119.982 341.577 119.414C340.588 118.84 339.828 118.029 339.295 116.982C338.762 115.928 338.496 114.688 338.496 113.262C338.496 111.859 338.762 110.628 339.295 109.569C339.834 108.503 340.585 107.675 341.55 107.083C342.515 106.485 343.648 106.186 344.95 106.186C345.791 106.186 346.584 106.322 347.329 106.594C348.081 106.861 348.744 107.275 349.318 107.837C349.898 108.4 350.354 109.116 350.685 109.986C351.017 110.85 351.182 111.88 351.182 113.075V114.061H340.005V111.895H348.102C348.096 111.279 347.963 110.732 347.702 110.252C347.442 109.767 347.078 109.385 346.61 109.107C346.149 108.829 345.61 108.69 344.995 108.69C344.338 108.69 343.761 108.849 343.263 109.169C342.766 109.483 342.379 109.897 342.1 110.412C341.828 110.921 341.689 111.48 341.683 112.09V113.981C341.683 114.774 341.828 115.455 342.118 116.023C342.408 116.585 342.814 117.017 343.334 117.319C343.855 117.615 344.465 117.763 345.163 117.763C345.631 117.763 346.054 117.698 346.433 117.567C346.812 117.431 347.14 117.233 347.418 116.973C347.696 116.712 347.907 116.39 348.049 116.005L351.049 116.342C350.86 117.135 350.499 117.828 349.966 118.42C349.439 119.006 348.765 119.461 347.942 119.787C347.119 120.107 346.178 120.266 345.119 120.266ZM364.679 109.968L361.749 110.288C361.666 109.992 361.521 109.714 361.314 109.453C361.113 109.193 360.841 108.983 360.498 108.823C360.154 108.663 359.734 108.583 359.237 108.583C358.568 108.583 358.006 108.728 357.55 109.018C357.1 109.308 356.878 109.684 356.884 110.146C356.878 110.542 357.023 110.865 357.319 111.113C357.621 111.362 358.118 111.566 358.811 111.726L361.137 112.223C362.427 112.501 363.386 112.942 364.013 113.546C364.646 114.15 364.966 114.94 364.972 115.916C364.966 116.774 364.714 117.532 364.217 118.189C363.726 118.84 363.042 119.349 362.167 119.716C361.291 120.083 360.284 120.266 359.148 120.266C357.479 120.266 356.136 119.917 355.118 119.219C354.1 118.514 353.493 117.535 353.298 116.28L356.431 115.978C356.574 116.594 356.875 117.058 357.337 117.372C357.799 117.686 358.399 117.843 359.139 117.843C359.903 117.843 360.515 117.686 360.977 117.372C361.444 117.058 361.678 116.671 361.678 116.209C361.678 115.819 361.527 115.496 361.225 115.241C360.93 114.987 360.468 114.792 359.841 114.656L357.515 114.167C356.207 113.895 355.239 113.436 354.612 112.791C353.984 112.14 353.673 111.317 353.679 110.323C353.673 109.483 353.901 108.755 354.363 108.139C354.83 107.518 355.479 107.038 356.307 106.701C357.142 106.358 358.103 106.186 359.192 106.186C360.79 106.186 362.048 106.526 362.966 107.207C363.889 107.888 364.46 108.808 364.679 109.968ZM367.622 120V106.364H370.836V120H367.622ZM369.238 104.428C368.729 104.428 368.291 104.26 367.924 103.922C367.557 103.579 367.373 103.168 367.373 102.688C367.373 102.203 367.557 101.792 367.924 101.454C368.291 101.111 368.729 100.939 369.238 100.939C369.753 100.939 370.191 101.111 370.552 101.454C370.919 101.792 371.102 102.203 371.102 102.688C371.102 103.168 370.919 103.579 370.552 103.922C370.191 104.26 369.753 104.428 369.238 104.428ZM381.562 100.966L375.703 122.734H372.889L378.748 100.966H381.562ZM383.755 120V101.818H387.049V117.239H395.057V120H383.755ZM403.722 120.266C402.39 120.266 401.236 119.973 400.259 119.387C399.283 118.801 398.525 117.982 397.986 116.928C397.454 115.875 397.187 114.644 397.187 113.235C397.187 111.826 397.454 110.592 397.986 109.533C398.525 108.474 399.283 107.651 400.259 107.065C401.236 106.479 402.39 106.186 403.722 106.186C405.053 106.186 406.207 106.479 407.184 107.065C408.16 107.651 408.915 108.474 409.448 109.533C409.986 110.592 410.256 111.826 410.256 113.235C410.256 114.644 409.986 115.875 409.448 116.928C408.915 117.982 408.16 118.801 407.184 119.387C406.207 119.973 405.053 120.266 403.722 120.266ZM403.739 117.692C404.461 117.692 405.065 117.493 405.55 117.097C406.036 116.694 406.397 116.156 406.633 115.481C406.876 114.806 406.997 114.055 406.997 113.226C406.997 112.392 406.876 111.637 406.633 110.962C406.397 110.282 406.036 109.74 405.55 109.338C405.065 108.935 404.461 108.734 403.739 108.734C402.999 108.734 402.384 108.935 401.893 109.338C401.407 109.74 401.043 110.282 400.801 110.962C400.564 111.637 400.446 112.392 400.446 113.226C400.446 114.055 400.564 114.806 400.801 115.481C401.043 116.156 401.407 116.694 401.893 117.097C402.384 117.493 402.999 117.692 403.739 117.692ZM418.914 125.398C417.76 125.398 416.768 125.241 415.94 124.927C415.111 124.619 414.445 124.205 413.942 123.684C413.439 123.163 413.09 122.586 412.895 121.953L415.789 121.252C415.919 121.518 416.108 121.781 416.357 122.042C416.605 122.308 416.94 122.527 417.36 122.699C417.786 122.876 418.322 122.965 418.967 122.965C419.878 122.965 420.633 122.743 421.231 122.299C421.829 121.861 422.127 121.139 422.127 120.133V117.55H421.968C421.802 117.881 421.559 118.221 421.24 118.571C420.926 118.92 420.509 119.213 419.988 119.45C419.473 119.686 418.825 119.805 418.044 119.805C416.996 119.805 416.046 119.559 415.194 119.068C414.348 118.571 413.673 117.831 413.17 116.848C412.673 115.86 412.424 114.623 412.424 113.137C412.424 111.64 412.673 110.376 413.17 109.347C413.673 108.311 414.35 107.527 415.203 106.994C416.055 106.455 417.005 106.186 418.053 106.186C418.852 106.186 419.509 106.322 420.023 106.594C420.544 106.861 420.959 107.183 421.266 107.562C421.574 107.935 421.808 108.287 421.968 108.619H422.145V106.364H425.315V120.222C425.315 121.388 425.036 122.353 424.48 123.116C423.924 123.88 423.163 124.451 422.199 124.83C421.234 125.208 420.139 125.398 418.914 125.398ZM418.94 117.283C419.621 117.283 420.201 117.118 420.68 116.786C421.16 116.455 421.524 115.978 421.772 115.357C422.021 114.735 422.145 113.99 422.145 113.12C422.145 112.261 422.021 111.51 421.772 110.865C421.53 110.22 421.169 109.719 420.689 109.364C420.216 109.003 419.633 108.823 418.94 108.823C418.224 108.823 417.626 109.009 417.147 109.382C416.668 109.755 416.307 110.267 416.064 110.918C415.821 111.563 415.7 112.297 415.7 113.12C415.7 113.954 415.821 114.685 416.064 115.312C416.313 115.934 416.676 116.419 417.156 116.768C417.641 117.112 418.236 117.283 418.94 117.283ZM432.532 120.275C431.668 120.275 430.89 120.121 430.197 119.814C429.511 119.5 428.966 119.038 428.564 118.429C428.167 117.819 427.969 117.067 427.969 116.174C427.969 115.404 428.111 114.768 428.395 114.265C428.679 113.762 429.067 113.359 429.558 113.058C430.049 112.756 430.603 112.528 431.218 112.374C431.84 112.214 432.482 112.099 433.145 112.028C433.944 111.945 434.592 111.871 435.089 111.806C435.586 111.735 435.947 111.628 436.172 111.486C436.403 111.338 436.518 111.11 436.518 110.803V110.749C436.518 110.08 436.32 109.563 435.924 109.196C435.527 108.829 434.956 108.645 434.21 108.645C433.423 108.645 432.799 108.817 432.337 109.16C431.881 109.503 431.574 109.909 431.414 110.376L428.413 109.95C428.65 109.122 429.04 108.429 429.585 107.873C430.129 107.311 430.795 106.89 431.582 106.612C432.37 106.328 433.24 106.186 434.192 106.186C434.849 106.186 435.503 106.263 436.154 106.417C436.806 106.571 437.4 106.825 437.939 107.18C438.478 107.53 438.91 108.006 439.235 108.61C439.567 109.213 439.732 109.968 439.732 110.874V120H436.643V118.127H436.536C436.341 118.506 436.066 118.861 435.711 119.192C435.361 119.518 434.92 119.781 434.388 119.982C433.861 120.178 433.243 120.275 432.532 120.275ZM433.367 117.914C434.012 117.914 434.571 117.786 435.045 117.532C435.518 117.272 435.882 116.928 436.137 116.502C436.397 116.076 436.527 115.611 436.527 115.108V113.501C436.427 113.584 436.255 113.661 436.012 113.732C435.776 113.803 435.509 113.865 435.213 113.919C434.917 113.972 434.625 114.019 434.335 114.061C434.045 114.102 433.793 114.138 433.58 114.167C433.1 114.232 432.671 114.339 432.293 114.487C431.914 114.635 431.615 114.842 431.396 115.108C431.177 115.369 431.067 115.706 431.067 116.12C431.067 116.712 431.283 117.159 431.716 117.461C432.148 117.763 432.698 117.914 433.367 117.914ZM442.964 120V106.364H446.036V108.681H446.195C446.479 107.9 446.95 107.29 447.607 106.852C448.264 106.408 449.048 106.186 449.96 106.186C450.883 106.186 451.661 106.411 452.294 106.861C452.934 107.305 453.383 107.911 453.644 108.681H453.786C454.088 107.923 454.597 107.319 455.313 106.87C456.035 106.414 456.89 106.186 457.879 106.186C459.133 106.186 460.157 106.583 460.95 107.376C461.743 108.169 462.14 109.326 462.14 110.847V120H458.917V111.344C458.917 110.498 458.692 109.879 458.243 109.489C457.793 109.092 457.242 108.894 456.591 108.894C455.816 108.894 455.209 109.136 454.771 109.622C454.339 110.101 454.123 110.726 454.123 111.495V120H450.972V111.211C450.972 110.507 450.759 109.944 450.332 109.524C449.912 109.104 449.362 108.894 448.681 108.894C448.219 108.894 447.799 109.012 447.42 109.249C447.042 109.48 446.74 109.808 446.515 110.234C446.29 110.655 446.178 111.146 446.178 111.708V120H442.964Z" fill="white"/>
<path d="M335.598 155V140.455H340.783C341.91 140.455 342.845 140.649 343.588 141.037C344.336 141.425 344.895 141.963 345.264 142.649C345.634 143.331 345.818 144.119 345.818 145.014C345.818 145.904 345.631 146.688 345.257 147.365C344.888 148.037 344.329 148.561 343.581 148.935C342.838 149.309 341.902 149.496 340.776 149.496H336.848V147.607H340.577C341.287 147.607 341.865 147.505 342.31 147.301C342.759 147.098 343.089 146.802 343.297 146.413C343.505 146.025 343.609 145.559 343.609 145.014C343.609 144.465 343.503 143.989 343.29 143.587C343.081 143.184 342.752 142.876 342.303 142.663C341.857 142.446 341.273 142.337 340.548 142.337H337.793V155H335.598ZM342.778 148.438L346.372 155H343.872L340.349 148.438H342.778ZM348.318 159.091V144.091H350.392V145.859H350.57C350.693 145.632 350.87 145.369 351.102 145.071C351.334 144.773 351.656 144.512 352.068 144.29C352.48 144.062 353.025 143.949 353.702 143.949C354.582 143.949 355.368 144.171 356.06 144.616C356.751 145.062 357.293 145.703 357.686 146.541C358.084 147.379 358.283 148.388 358.283 149.567C358.283 150.746 358.086 151.757 357.693 152.599C357.3 153.437 356.76 154.084 356.074 154.538C355.387 154.988 354.604 155.213 353.723 155.213C353.06 155.213 352.518 155.102 352.097 154.879C351.68 154.657 351.353 154.396 351.116 154.098C350.88 153.8 350.697 153.535 350.57 153.303H350.442V159.091H348.318ZM350.399 149.545C350.399 150.312 350.51 150.985 350.733 151.562C350.955 152.14 351.277 152.592 351.699 152.919C352.12 153.241 352.636 153.402 353.247 153.402C353.882 153.402 354.412 153.234 354.838 152.898C355.264 152.557 355.586 152.095 355.804 151.513C356.027 150.93 356.138 150.275 356.138 149.545C356.138 148.826 356.029 148.179 355.811 147.607C355.598 147.034 355.276 146.581 354.845 146.25C354.419 145.919 353.886 145.753 353.247 145.753C352.632 145.753 352.111 145.911 351.685 146.229C351.263 146.546 350.944 146.989 350.726 147.557C350.508 148.125 350.399 148.788 350.399 149.545ZM370.728 155.199C369.837 155.199 369.037 155.028 368.327 154.688C367.622 154.342 367.058 153.868 366.637 153.267C366.215 152.666 365.99 151.979 365.962 151.207H368.093C368.145 151.832 368.422 152.346 368.924 152.749C369.426 153.151 370.027 153.352 370.728 153.352C371.286 153.352 371.781 153.224 372.212 152.969C372.648 152.708 372.989 152.351 373.235 151.896C373.486 151.442 373.611 150.923 373.611 150.341C373.611 149.749 373.483 149.221 373.228 148.757C372.972 148.293 372.619 147.929 372.169 147.663C371.724 147.398 371.213 147.263 370.635 147.259C370.195 147.259 369.752 147.334 369.307 147.486C368.862 147.637 368.502 147.836 368.228 148.082L366.218 147.784L367.034 140.455H375.032V142.337H368.86L368.398 146.406H368.483C368.767 146.132 369.144 145.902 369.613 145.717C370.086 145.533 370.593 145.44 371.132 145.44C372.018 145.44 372.806 145.651 373.498 146.072C374.194 146.494 374.74 147.069 375.138 147.798C375.541 148.523 375.739 149.356 375.735 150.298C375.739 151.241 375.526 152.081 375.096 152.82C374.669 153.558 374.078 154.141 373.32 154.567C372.567 154.988 371.703 155.199 370.728 155.199ZM379.229 155.135C378.841 155.135 378.507 154.998 378.228 154.723C377.948 154.444 377.809 154.107 377.809 153.714C377.809 153.326 377.948 152.995 378.228 152.72C378.507 152.441 378.841 152.301 379.229 152.301C379.617 152.301 379.951 152.441 380.23 152.72C380.51 152.995 380.65 153.326 380.65 153.714C380.65 153.975 380.583 154.214 380.451 154.432C380.323 154.645 380.152 154.815 379.939 154.943C379.726 155.071 379.489 155.135 379.229 155.135ZM388.032 155.199C387.142 155.199 386.342 155.028 385.632 154.688C384.926 154.342 384.363 153.868 383.941 153.267C383.52 152.666 383.295 151.979 383.267 151.207H385.397C385.449 151.832 385.726 152.346 386.228 152.749C386.73 153.151 387.332 153.352 388.032 153.352C388.591 153.352 389.086 153.224 389.517 152.969C389.952 152.708 390.293 152.351 390.539 151.896C390.79 151.442 390.916 150.923 390.916 150.341C390.916 149.749 390.788 149.221 390.532 148.757C390.277 148.293 389.924 147.929 389.474 147.663C389.029 147.398 388.518 147.263 387.94 147.259C387.5 147.259 387.057 147.334 386.612 147.486C386.167 147.637 385.807 147.836 385.532 148.082L383.522 147.784L384.339 140.455H392.336V142.337H386.164L385.703 146.406H385.788C386.072 146.132 386.449 145.902 386.917 145.717C387.391 145.533 387.897 145.44 388.437 145.44C389.323 145.44 390.111 145.651 390.802 146.072C391.498 146.494 392.045 147.069 392.443 147.798C392.845 148.523 393.044 149.356 393.039 150.298C393.044 151.241 392.831 152.081 392.4 152.82C391.974 153.558 391.382 154.141 390.625 154.567C389.872 154.988 389.008 155.199 388.032 155.199ZM400.697 155.241C399.575 155.237 398.616 154.941 397.821 154.354C397.026 153.767 396.417 152.912 395.996 151.79C395.574 150.668 395.364 149.316 395.364 147.734C395.364 146.158 395.574 144.811 395.996 143.693C396.422 142.576 397.033 141.723 397.828 141.136C398.628 140.549 399.585 140.256 400.697 140.256C401.81 140.256 402.764 140.552 403.56 141.143C404.355 141.731 404.964 142.583 405.385 143.7C405.811 144.813 406.024 146.158 406.024 147.734C406.024 149.321 405.813 150.675 405.392 151.797C404.971 152.914 404.362 153.769 403.567 154.361C402.771 154.948 401.815 155.241 400.697 155.241ZM400.697 153.345C401.682 153.345 402.452 152.865 403.006 151.903C403.564 150.942 403.844 149.553 403.844 147.734C403.844 146.527 403.716 145.507 403.46 144.673C403.209 143.835 402.847 143.201 402.374 142.77C401.905 142.334 401.346 142.116 400.697 142.116C399.717 142.116 398.948 142.599 398.389 143.565C397.83 144.531 397.549 145.921 397.544 147.734C397.544 148.946 397.67 149.972 397.92 150.81C398.176 151.643 398.538 152.275 399.007 152.706C399.476 153.132 400.039 153.345 400.697 153.345ZM413.608 155.241C412.485 155.237 411.527 154.941 410.731 154.354C409.936 153.767 409.327 152.912 408.906 151.79C408.484 150.668 408.274 149.316 408.274 147.734C408.274 146.158 408.484 144.811 408.906 143.693C409.332 142.576 409.943 141.723 410.738 141.136C411.538 140.549 412.495 140.256 413.608 140.256C414.72 140.256 415.674 140.552 416.47 141.143C417.265 141.731 417.874 142.583 418.295 143.7C418.721 144.813 418.934 146.158 418.934 147.734C418.934 149.321 418.724 150.675 418.302 151.797C417.881 152.914 417.272 153.769 416.477 154.361C415.681 154.948 414.725 155.241 413.608 155.241ZM413.608 153.345C414.592 153.345 415.362 152.865 415.916 151.903C416.475 150.942 416.754 149.553 416.754 147.734C416.754 146.527 416.626 145.507 416.37 144.673C416.119 143.835 415.757 143.201 415.284 142.77C414.815 142.334 414.256 142.116 413.608 142.116C412.627 142.116 411.858 142.599 411.299 143.565C410.741 144.531 410.459 145.921 410.454 147.734C410.454 148.946 410.58 149.972 410.831 150.81C411.086 151.643 411.449 152.275 411.917 152.706C412.386 153.132 412.949 153.345 413.608 153.345ZM427.022 139.773L422.335 157.188H420.438L425.126 139.773H427.022ZM430.779 151.3L430.765 148.707H431.134L435.481 144.091H438.023L433.066 149.347H432.732L430.779 151.3ZM428.826 155V140.455H430.95V155H428.826ZM435.715 155L431.809 149.815L433.272 148.331L438.322 155H435.715ZM444.083 159.318C443.217 159.318 442.471 159.205 441.846 158.977C441.226 158.75 440.719 158.449 440.326 158.075C439.933 157.701 439.64 157.292 439.446 156.847L441.271 156.094C441.399 156.302 441.569 156.522 441.782 156.754C442 156.991 442.294 157.192 442.663 157.358C443.037 157.524 443.518 157.607 444.105 157.607C444.91 157.607 445.575 157.41 446.1 157.017C446.626 156.629 446.889 156.009 446.889 155.156V153.011H446.754C446.626 153.243 446.441 153.501 446.2 153.786C445.963 154.07 445.636 154.316 445.22 154.524C444.803 154.732 444.261 154.837 443.593 154.837C442.732 154.837 441.955 154.635 441.264 154.233C440.577 153.826 440.033 153.227 439.63 152.436C439.233 151.641 439.034 150.663 439.034 149.503C439.034 148.343 439.23 147.348 439.623 146.52C440.021 145.691 440.565 145.057 441.257 144.616C441.948 144.171 442.732 143.949 443.608 143.949C444.285 143.949 444.832 144.062 445.248 144.29C445.665 144.512 445.989 144.773 446.221 145.071C446.458 145.369 446.64 145.632 446.768 145.859H446.924V144.091H449.005V155.241C449.005 156.179 448.788 156.948 448.352 157.55C447.916 158.151 447.327 158.596 446.583 158.885C445.845 159.174 445.011 159.318 444.083 159.318ZM444.062 153.075C444.673 153.075 445.189 152.933 445.61 152.649C446.037 152.36 446.359 151.948 446.576 151.413C446.799 150.874 446.91 150.227 446.91 149.474C446.91 148.741 446.801 148.094 446.583 147.536C446.366 146.977 446.046 146.541 445.625 146.229C445.203 145.911 444.682 145.753 444.062 145.753C443.423 145.753 442.89 145.919 442.464 146.25C442.038 146.577 441.716 147.022 441.498 147.585C441.285 148.149 441.179 148.778 441.179 149.474C441.179 150.189 441.288 150.817 441.505 151.357C441.723 151.896 442.045 152.318 442.471 152.621C442.902 152.924 443.432 153.075 444.062 153.075Z" fill="white"/>
<path d="M392.53 29C372.884 29 353 35.7786 353 48.7308V66.2692C353 79.2214 372.884 86 392.53 86C412.176 86 432.06 79.2214 432.06 66.2692V48.7308C432.06 35.7786 412.176 29 392.53 29ZM360.906 66.2692V61.0208C363.183 62.4897 365.851 63.7525 368.812 64.7916V73.0391C363.626 70.7854 360.906 68.102 360.906 66.2692ZM408.342 66.9182V75.5602C404.915 76.3451 400.962 76.9195 396.483 77.1299V68.3607C400.547 68.1765 404.551 67.6855 408.342 66.9182ZM388.577 77.1343C384.098 76.9239 380.145 76.3495 376.718 75.5646V66.9225C380.509 67.6855 384.513 68.1809 388.577 68.3695V77.1343ZM416.248 73.0391V64.7916C419.209 63.7525 421.877 62.4941 424.154 61.0208V66.2692C424.154 68.102 421.438 70.7854 416.248 73.0391ZM392.53 59.6923C372.065 59.6923 360.906 52.4533 360.906 48.7308C360.906 45.0082 372.065 37.7692 392.53 37.7692C412.995 37.7692 424.154 45.0082 424.154 48.7308C424.154 52.4533 412.995 59.6923 392.53 59.6923Z" fill="white"/>
<path d="M0 218H205C221.569 218 235 231.431 235 248V415H30C13.4315 415 0 401.569 0 385L0 218Z" fill="#0B8A48"/>
<path d="M79.7933 341V322.818H83.087V331.172H83.3089L90.4023 322.818H94.424L87.3928 330.977L94.4862 341H90.5266L85.1023 333.205L83.087 335.585V341H79.7933ZM101.606 341.266C100.239 341.266 99.0582 340.982 98.0639 340.414C97.0755 339.84 96.315 339.029 95.7823 337.982C95.2496 336.928 94.9833 335.688 94.9833 334.262C94.9833 332.859 95.2496 331.628 95.7823 330.569C96.3209 329.503 97.0726 328.675 98.0373 328.083C99.002 327.485 100.135 327.186 101.438 327.186C102.278 327.186 103.071 327.322 103.817 327.594C104.568 327.861 105.231 328.275 105.805 328.837C106.385 329.4 106.841 330.116 107.173 330.986C107.504 331.85 107.67 332.88 107.67 334.075V335.061H96.4925V332.895H104.589C104.583 332.279 104.45 331.732 104.19 331.252C103.929 330.767 103.565 330.385 103.098 330.107C102.636 329.829 102.097 329.69 101.482 329.69C100.825 329.69 100.248 329.849 99.7507 330.169C99.2536 330.483 98.8659 330.897 98.5877 331.412C98.3155 331.921 98.1764 332.48 98.1705 333.09V334.981C98.1705 335.774 98.3155 336.455 98.6055 337.023C98.8955 337.585 99.3009 338.017 99.8217 338.319C100.343 338.615 100.952 338.763 101.651 338.763C102.118 338.763 102.541 338.698 102.92 338.567C103.299 338.431 103.627 338.233 103.906 337.973C104.184 337.712 104.394 337.39 104.536 337.005L107.537 337.342C107.347 338.135 106.986 338.828 106.453 339.42C105.927 340.006 105.252 340.461 104.429 340.787C103.607 341.107 102.666 341.266 101.606 341.266ZM110.389 341V327.364H113.505V329.636H113.647C113.895 328.849 114.321 328.243 114.925 327.816C115.535 327.384 116.23 327.168 117.011 327.168C117.189 327.168 117.387 327.177 117.606 327.195C117.831 327.207 118.018 327.228 118.166 327.257V330.213C118.029 330.166 117.813 330.125 117.517 330.089C117.227 330.048 116.946 330.027 116.674 330.027C116.088 330.027 115.561 330.154 115.094 330.409C114.632 330.657 114.268 331.004 114.002 331.447C113.736 331.891 113.602 332.403 113.602 332.983V341H110.389ZM127.842 327.364V329.849H120.003V327.364H127.842ZM121.939 324.097H125.152V336.898C125.152 337.33 125.218 337.662 125.348 337.893C125.484 338.118 125.661 338.272 125.88 338.354C126.099 338.437 126.342 338.479 126.608 338.479C126.81 338.479 126.993 338.464 127.159 338.434C127.33 338.405 127.461 338.378 127.549 338.354L128.091 340.867C127.919 340.926 127.674 340.991 127.354 341.062C127.04 341.133 126.656 341.175 126.2 341.186C125.395 341.21 124.67 341.089 124.025 340.822C123.38 340.55 122.868 340.13 122.489 339.562C122.116 338.994 121.933 338.283 121.939 337.431V324.097ZM134.454 341.275C133.59 341.275 132.812 341.121 132.119 340.814C131.433 340.5 130.888 340.038 130.486 339.429C130.089 338.819 129.891 338.067 129.891 337.174C129.891 336.404 130.033 335.768 130.317 335.265C130.601 334.762 130.989 334.359 131.48 334.058C131.971 333.756 132.525 333.528 133.14 333.374C133.762 333.214 134.404 333.099 135.067 333.028C135.866 332.945 136.514 332.871 137.011 332.806C137.508 332.735 137.869 332.628 138.094 332.486C138.325 332.338 138.44 332.11 138.44 331.803V331.749C138.44 331.08 138.242 330.563 137.846 330.196C137.449 329.829 136.878 329.645 136.132 329.645C135.345 329.645 134.721 329.817 134.259 330.16C133.803 330.503 133.495 330.909 133.336 331.376L130.335 330.95C130.572 330.122 130.962 329.429 131.507 328.873C132.051 328.311 132.717 327.89 133.504 327.612C134.291 327.328 135.161 327.186 136.114 327.186C136.771 327.186 137.425 327.263 138.076 327.417C138.727 327.571 139.322 327.825 139.861 328.18C140.399 328.53 140.831 329.006 141.157 329.61C141.488 330.213 141.654 330.968 141.654 331.874V341H138.565V339.127H138.458C138.263 339.506 137.988 339.861 137.632 340.192C137.283 340.518 136.842 340.781 136.31 340.982C135.783 341.178 135.164 341.275 134.454 341.275ZM135.289 338.914C135.934 338.914 136.493 338.786 136.967 338.532C137.44 338.272 137.804 337.928 138.059 337.502C138.319 337.076 138.449 336.611 138.449 336.108V334.501C138.349 334.584 138.177 334.661 137.934 334.732C137.698 334.803 137.431 334.865 137.135 334.919C136.839 334.972 136.546 335.019 136.256 335.061C135.966 335.102 135.715 335.138 135.502 335.167C135.022 335.232 134.593 335.339 134.214 335.487C133.836 335.635 133.537 335.842 133.318 336.108C133.099 336.369 132.989 336.706 132.989 337.12C132.989 337.712 133.205 338.159 133.637 338.461C134.069 338.763 134.62 338.914 135.289 338.914ZM155.663 330.968L152.734 331.288C152.651 330.992 152.506 330.714 152.299 330.453C152.097 330.193 151.825 329.983 151.482 329.823C151.139 329.663 150.718 329.583 150.221 329.583C149.552 329.583 148.99 329.728 148.534 330.018C148.085 330.308 147.863 330.684 147.869 331.146C147.863 331.542 148.008 331.865 148.304 332.113C148.605 332.362 149.103 332.566 149.795 332.726L152.121 333.223C153.411 333.501 154.37 333.942 154.998 334.546C155.631 335.15 155.95 335.94 155.956 336.916C155.95 337.774 155.699 338.532 155.202 339.189C154.71 339.84 154.027 340.349 153.151 340.716C152.275 341.083 151.269 341.266 150.132 341.266C148.463 341.266 147.12 340.917 146.102 340.219C145.084 339.514 144.477 338.535 144.282 337.28L147.416 336.978C147.558 337.594 147.86 338.058 148.321 338.372C148.783 338.686 149.384 338.843 150.124 338.843C150.887 338.843 151.5 338.686 151.961 338.372C152.429 338.058 152.663 337.671 152.663 337.209C152.663 336.819 152.512 336.496 152.21 336.241C151.914 335.987 151.452 335.792 150.825 335.656L148.499 335.167C147.191 334.895 146.223 334.436 145.596 333.791C144.969 333.14 144.658 332.317 144.664 331.323C144.658 330.483 144.886 329.755 145.347 329.139C145.815 328.518 146.463 328.038 147.292 327.701C148.126 327.358 149.088 327.186 150.177 327.186C151.775 327.186 153.033 327.526 153.95 328.207C154.873 328.888 155.444 329.808 155.663 330.968Z" fill="white"/>
<path d="M62.598 376V361.455H67.7827C68.9096 361.455 69.8447 361.649 70.5881 362.037C71.3362 362.425 71.8949 362.963 72.2642 363.649C72.6335 364.331 72.8182 365.119 72.8182 366.014C72.8182 366.904 72.6312 367.688 72.2571 368.365C71.8878 369.037 71.3291 369.561 70.581 369.935C69.8376 370.309 68.9025 370.496 67.7756 370.496H63.848V368.607H67.5767C68.2869 368.607 68.8646 368.505 69.3097 368.301C69.7595 368.098 70.0885 367.802 70.2969 367.413C70.5052 367.025 70.6094 366.559 70.6094 366.014C70.6094 365.465 70.5028 364.989 70.2898 364.587C70.0814 364.184 69.7524 363.876 69.3026 363.663C68.8575 363.446 68.2727 363.337 67.5483 363.337H64.7926V376H62.598ZM69.7784 369.438L73.3722 376H70.8722L67.3494 369.438H69.7784ZM75.3182 380.091V365.091H77.392V366.859H77.5696C77.6927 366.632 77.8703 366.369 78.1023 366.071C78.3343 365.773 78.6563 365.512 79.0682 365.29C79.4801 365.062 80.0246 364.949 80.7017 364.949C81.5824 364.949 82.3684 365.171 83.0597 365.616C83.7509 366.062 84.2931 366.703 84.6861 367.541C85.0838 368.379 85.2827 369.388 85.2827 370.567C85.2827 371.746 85.0862 372.757 84.6932 373.599C84.3002 374.437 83.7604 375.084 83.0739 375.538C82.3873 375.988 81.6037 376.213 80.723 376.213C80.0601 376.213 79.518 376.102 79.0966 375.879C78.6799 375.657 78.3532 375.396 78.1165 375.098C77.8797 374.8 77.6974 374.535 77.5696 374.303H77.4418V380.091H75.3182ZM77.3991 370.545C77.3991 371.312 77.5104 371.985 77.733 372.562C77.9555 373.14 78.2775 373.592 78.6989 373.919C79.1203 374.241 79.6364 374.402 80.2472 374.402C80.8816 374.402 81.4119 374.234 81.8381 373.898C82.2642 373.557 82.5862 373.095 82.804 372.513C83.0265 371.93 83.1378 371.275 83.1378 370.545C83.1378 369.826 83.0289 369.179 82.8111 368.607C82.598 368.034 82.276 367.581 81.8452 367.25C81.419 366.919 80.8864 366.753 80.2472 366.753C79.6316 366.753 79.1108 366.911 78.6847 367.229C78.2633 367.546 77.9437 367.989 77.7259 368.557C77.508 369.125 77.3991 369.788 77.3991 370.545ZM98.445 361.455V376H96.2433V363.656H96.158L92.6779 365.929V363.827L96.3072 361.455H98.445ZM102.967 376.135C102.579 376.135 102.245 375.998 101.966 375.723C101.687 375.444 101.547 375.107 101.547 374.714C101.547 374.326 101.687 373.995 101.966 373.72C102.245 373.441 102.579 373.301 102.967 373.301C103.356 373.301 103.689 373.441 103.969 373.72C104.248 373.995 104.388 374.326 104.388 374.714C104.388 374.975 104.321 375.214 104.189 375.432C104.061 375.645 103.891 375.815 103.678 375.943C103.464 376.071 103.228 376.135 102.967 376.135ZM111.74 376.241C110.618 376.237 109.659 375.941 108.864 375.354C108.069 374.767 107.46 373.912 107.039 372.79C106.617 371.668 106.407 370.316 106.407 368.734C106.407 367.158 106.617 365.811 107.039 364.693C107.465 363.576 108.076 362.723 108.871 362.136C109.671 361.549 110.628 361.256 111.74 361.256C112.853 361.256 113.807 361.552 114.603 362.143C115.398 362.731 116.007 363.583 116.428 364.7C116.854 365.813 117.067 367.158 117.067 368.734C117.067 370.321 116.856 371.675 116.435 372.797C116.014 373.914 115.405 374.769 114.61 375.361C113.814 375.948 112.858 376.241 111.74 376.241ZM111.74 374.345C112.725 374.345 113.495 373.865 114.049 372.903C114.607 371.942 114.887 370.553 114.887 368.734C114.887 367.527 114.759 366.507 114.503 365.673C114.252 364.835 113.89 364.201 113.417 363.77C112.948 363.334 112.389 363.116 111.74 363.116C110.76 363.116 109.991 363.599 109.432 364.565C108.873 365.531 108.592 366.921 108.587 368.734C108.587 369.946 108.712 370.972 108.963 371.81C109.219 372.643 109.581 373.275 110.05 373.706C110.519 374.132 111.082 374.345 111.74 374.345ZM124.651 376.241C123.528 376.237 122.57 375.941 121.774 375.354C120.979 374.767 120.37 373.912 119.949 372.79C119.527 371.668 119.317 370.316 119.317 368.734C119.317 367.158 119.527 365.811 119.949 364.693C120.375 363.576 120.986 362.723 121.781 362.136C122.581 361.549 123.538 361.256 124.651 361.256C125.763 361.256 126.717 361.552 127.513 362.143C128.308 362.731 128.917 363.583 129.338 364.7C129.764 365.813 129.977 367.158 129.977 368.734C129.977 370.321 129.767 371.675 129.345 372.797C128.924 373.914 128.315 374.769 127.52 375.361C126.724 375.948 125.768 376.241 124.651 376.241ZM124.651 374.345C125.635 374.345 126.405 373.865 126.959 372.903C127.518 371.942 127.797 370.553 127.797 368.734C127.797 367.527 127.669 366.507 127.413 365.673C127.162 364.835 126.8 364.201 126.327 363.77C125.858 363.334 125.299 363.116 124.651 363.116C123.67 363.116 122.901 363.599 122.342 364.565C121.784 365.531 121.502 366.921 121.497 368.734C121.497 369.946 121.623 370.972 121.874 371.81C122.129 372.643 122.491 373.275 122.96 373.706C123.429 374.132 123.992 374.345 124.651 374.345ZM137.561 376.241C136.439 376.237 135.48 375.941 134.684 375.354C133.889 374.767 133.28 373.912 132.859 372.79C132.438 371.668 132.227 370.316 132.227 368.734C132.227 367.158 132.438 365.811 132.859 364.693C133.285 363.576 133.896 362.723 134.691 362.136C135.492 361.549 136.448 361.256 137.561 361.256C138.673 361.256 139.627 361.552 140.423 362.143C141.218 362.731 141.827 363.583 142.248 364.7C142.674 365.813 142.887 367.158 142.887 368.734C142.887 370.321 142.677 371.675 142.255 372.797C141.834 373.914 141.225 374.769 140.43 375.361C139.635 375.948 138.678 376.241 137.561 376.241ZM137.561 374.345C138.546 374.345 139.315 373.865 139.869 372.903C140.428 371.942 140.707 370.553 140.707 368.734C140.707 367.527 140.579 366.507 140.324 365.673C140.073 364.835 139.71 364.201 139.237 363.77C138.768 363.334 138.209 363.116 137.561 363.116C136.581 363.116 135.811 363.599 135.252 364.565C134.694 365.531 134.412 366.921 134.407 368.734C134.407 369.946 134.533 370.972 134.784 371.81C135.039 372.643 135.402 373.275 135.87 373.706C136.339 374.132 136.903 374.345 137.561 374.345ZM150.975 360.773L146.288 378.188H144.391L149.079 360.773H150.975ZM154.732 372.3L154.718 369.707H155.087L159.434 365.091H161.977L157.019 370.347H156.685L154.732 372.3ZM152.779 376V361.455H154.903V376H152.779ZM159.668 376L155.762 370.815L157.225 369.331L162.275 376H159.668ZM168.037 380.318C167.17 380.318 166.424 380.205 165.799 379.977C165.179 379.75 164.672 379.449 164.279 379.075C163.886 378.701 163.593 378.292 163.399 377.847L165.224 377.094C165.352 377.302 165.522 377.522 165.735 377.754C165.953 377.991 166.247 378.192 166.616 378.358C166.99 378.524 167.471 378.607 168.058 378.607C168.863 378.607 169.528 378.41 170.054 378.017C170.579 377.629 170.842 377.009 170.842 376.156V374.011H170.707C170.579 374.243 170.395 374.501 170.153 374.786C169.916 375.07 169.59 375.316 169.173 375.524C168.756 375.732 168.214 375.837 167.547 375.837C166.685 375.837 165.908 375.635 165.217 375.233C164.53 374.826 163.986 374.227 163.583 373.436C163.186 372.641 162.987 371.663 162.987 370.503C162.987 369.343 163.183 368.348 163.576 367.52C163.974 366.691 164.519 366.057 165.21 365.616C165.901 365.171 166.685 364.949 167.561 364.949C168.238 364.949 168.785 365.062 169.201 365.29C169.618 365.512 169.942 365.773 170.174 366.071C170.411 366.369 170.593 366.632 170.721 366.859H170.877V365.091H172.958V376.241C172.958 377.179 172.741 377.948 172.305 378.55C171.869 379.151 171.28 379.596 170.537 379.885C169.798 380.174 168.965 380.318 168.037 380.318ZM168.015 374.075C168.626 374.075 169.142 373.933 169.564 373.649C169.99 373.36 170.312 372.948 170.529 372.413C170.752 371.874 170.863 371.227 170.863 370.474C170.863 369.741 170.754 369.094 170.537 368.536C170.319 367.977 169.999 367.541 169.578 367.229C169.156 366.911 168.636 366.753 168.015 366.753C167.376 366.753 166.843 366.919 166.417 367.25C165.991 367.577 165.669 368.022 165.451 368.585C165.238 369.149 165.132 369.778 165.132 370.474C165.132 371.189 165.241 371.817 165.458 372.357C165.676 372.896 165.998 373.318 166.424 373.621C166.855 373.924 167.386 374.075 168.015 374.075Z" fill="white"/>
<path d="M144.945 245H123.228C120.836 245 118.674 245.982 117.024 247.545C115.373 245.982 113.211 245 110.819 245H89.1024C87.3868 245 86 246.462 86 248.263V297.211C86 299.015 87.3868 300.474 89.1024 300.474H106.966C108.598 300.474 110.198 301.172 111.352 302.386L114.83 306.044C114.858 306.073 114.895 306.083 114.923 306.112C115.19 306.37 115.488 306.599 115.835 306.752H115.842C116.217 306.915 116.617 307 117.024 307C117.43 307 117.83 306.915 118.206 306.752H118.212C118.559 306.599 118.857 306.37 119.124 306.112C119.152 306.083 119.189 306.073 119.217 306.044L122.695 302.386C123.849 301.172 125.45 300.474 127.081 300.474H144.945C146.66 300.474 148.047 299.015 148.047 297.211V248.263C148.047 246.462 146.66 245 144.945 245ZM106.966 293.947H92.2047V251.526H110.819C112.531 251.526 113.921 252.991 113.921 254.789V296.196C111.88 294.75 109.444 293.947 106.966 293.947ZM141.842 293.947H127.081C124.603 293.947 122.167 294.75 120.126 296.196V254.789C120.126 252.991 121.516 251.526 123.228 251.526H141.842V293.947Z" fill="white"/>
<path d="M550 220H755C771.569 220 785 233.431 785 250V417H580C563.431 417 550 403.569 550 387V220Z" fill="#0B8A48"/>
<path d="M650.926 309H683.243C684.852 309 686.216 307.865 686.442 306.34L692.508 265.6H696.169V259.4H691.703L686.132 248.714C685.586 247.663 684.467 247 683.243 247H650.926C649.702 247 648.584 247.663 648.034 248.714L642.466 259.4H638V265.6H641.661L647.727 306.34C647.953 307.865 649.317 309 650.926 309ZM684.593 274.9H649.576L648.189 265.6H685.977L684.593 274.9ZM653.728 302.8L652.342 293.5H681.824L680.438 302.8H653.728ZM652.924 253.2H681.246L684.477 259.4H649.692L652.924 253.2Z" fill="white"/>
<path d="M628.793 343V324.818H635.612C637.008 324.818 638.18 325.079 639.127 325.599C640.08 326.12 640.799 326.836 641.284 327.748C641.776 328.653 642.021 329.683 642.021 330.837C642.021 332.003 641.776 333.039 641.284 333.945C640.793 334.85 640.068 335.563 639.109 336.084C638.151 336.599 636.97 336.857 635.567 336.857H631.048V334.149H635.123C635.94 334.149 636.609 334.007 637.13 333.723C637.65 333.439 638.035 333.048 638.284 332.551C638.538 332.054 638.665 331.482 638.665 330.837C638.665 330.192 638.538 329.624 638.284 329.133C638.035 328.642 637.647 328.26 637.121 327.988C636.6 327.709 635.928 327.57 635.105 327.57H632.087V343H628.793ZM647.954 324.818V343H644.74V324.818H647.954ZM655.183 343.275C654.319 343.275 653.54 343.121 652.848 342.814C652.161 342.5 651.617 342.038 651.214 341.429C650.818 340.819 650.619 340.067 650.619 339.174C650.619 338.404 650.762 337.768 651.046 337.265C651.33 336.762 651.717 336.359 652.209 336.058C652.7 335.756 653.253 335.528 653.869 335.374C654.49 335.214 655.132 335.099 655.795 335.028C656.594 334.945 657.242 334.871 657.74 334.806C658.237 334.735 658.598 334.628 658.823 334.486C659.053 334.338 659.169 334.11 659.169 333.803V333.749C659.169 333.08 658.971 332.563 658.574 332.196C658.177 331.829 657.606 331.645 656.861 331.645C656.073 331.645 655.449 331.817 654.987 332.16C654.532 332.503 654.224 332.909 654.064 333.376L651.063 332.95C651.3 332.122 651.691 331.429 652.235 330.873C652.78 330.311 653.446 329.89 654.233 329.612C655.02 329.328 655.89 329.186 656.843 329.186C657.5 329.186 658.154 329.263 658.805 329.417C659.456 329.571 660.051 329.825 660.589 330.18C661.128 330.53 661.56 331.006 661.885 331.61C662.217 332.213 662.383 332.968 662.383 333.874V343H659.293V341.127H659.187C658.991 341.506 658.716 341.861 658.361 342.192C658.012 342.518 657.571 342.781 657.038 342.982C656.511 343.178 655.893 343.275 655.183 343.275ZM656.017 340.914C656.662 340.914 657.222 340.786 657.695 340.532C658.169 340.272 658.533 339.928 658.787 339.502C659.048 339.076 659.178 338.611 659.178 338.108V336.501C659.077 336.584 658.905 336.661 658.663 336.732C658.426 336.803 658.16 336.865 657.864 336.919C657.568 336.972 657.275 337.019 656.985 337.061C656.695 337.102 656.443 337.138 656.23 337.167C655.751 337.232 655.322 337.339 654.943 337.487C654.564 337.635 654.265 337.842 654.046 338.108C653.827 338.369 653.718 338.706 653.718 339.12C653.718 339.712 653.934 340.159 654.366 340.461C654.798 340.763 655.348 340.914 656.017 340.914ZM676.392 332.968L673.462 333.288C673.379 332.992 673.234 332.714 673.027 332.453C672.826 332.193 672.554 331.983 672.21 331.823C671.867 331.663 671.447 331.583 670.95 331.583C670.281 331.583 669.719 331.728 669.263 332.018C668.813 332.308 668.591 332.684 668.597 333.146C668.591 333.542 668.736 333.865 669.032 334.113C669.334 334.362 669.831 334.566 670.524 334.726L672.85 335.223C674.14 335.501 675.099 335.942 675.726 336.546C676.359 337.15 676.679 337.94 676.685 338.916C676.679 339.774 676.427 340.532 675.93 341.189C675.439 341.84 674.755 342.349 673.879 342.716C673.003 343.083 671.997 343.266 670.861 343.266C669.192 343.266 667.848 342.917 666.83 342.219C665.812 341.514 665.206 340.535 665.01 339.28L668.144 338.978C668.286 339.594 668.588 340.058 669.05 340.372C669.512 340.686 670.112 340.843 670.852 340.843C671.616 340.843 672.228 340.686 672.69 340.372C673.157 340.058 673.391 339.671 673.391 339.209C673.391 338.819 673.24 338.496 672.938 338.241C672.642 337.987 672.181 337.792 671.553 337.656L669.227 337.167C667.919 336.895 666.952 336.436 666.324 335.791C665.697 335.14 665.386 334.317 665.392 333.323C665.386 332.483 665.614 331.755 666.076 331.139C666.543 330.518 667.191 330.038 668.02 329.701C668.855 329.358 669.816 329.186 670.905 329.186C672.503 329.186 673.761 329.526 674.678 330.207C675.602 330.888 676.173 331.808 676.392 332.968ZM686.144 329.364V331.849H678.305V329.364H686.144ZM680.24 326.097H683.454V338.898C683.454 339.33 683.519 339.662 683.65 339.893C683.786 340.118 683.963 340.272 684.182 340.354C684.401 340.437 684.644 340.479 684.91 340.479C685.111 340.479 685.295 340.464 685.461 340.434C685.632 340.405 685.762 340.378 685.851 340.354L686.393 342.867C686.221 342.926 685.975 342.991 685.656 343.062C685.342 343.133 684.958 343.175 684.502 343.186C683.697 343.21 682.972 343.089 682.327 342.822C681.682 342.55 681.17 342.13 680.791 341.562C680.418 340.994 680.234 340.283 680.24 339.431V326.097ZM688.832 343V329.364H692.046V343H688.832ZM690.448 327.428C689.939 327.428 689.501 327.26 689.134 326.922C688.767 326.579 688.583 326.168 688.583 325.688C688.583 325.203 688.767 324.792 689.134 324.454C689.501 324.111 689.939 323.939 690.448 323.939C690.963 323.939 691.401 324.111 691.762 324.454C692.129 324.792 692.312 325.203 692.312 325.688C692.312 326.168 692.129 326.579 691.762 326.922C691.401 327.26 690.963 327.428 690.448 327.428ZM698.28 338.721L698.271 334.841H698.786L703.687 329.364H707.442L701.414 336.075H700.748L698.28 338.721ZM695.35 343V324.818H698.564V343H695.35ZM703.909 343L699.47 336.794L701.636 334.531L707.753 343H703.909Z" fill="white"/>
<path d="M614.598 378V363.455H619.783C620.91 363.455 621.845 363.649 622.588 364.037C623.336 364.425 623.895 364.963 624.264 365.649C624.634 366.331 624.818 367.119 624.818 368.014C624.818 368.904 624.631 369.688 624.257 370.365C623.888 371.037 623.329 371.561 622.581 371.935C621.838 372.309 620.902 372.496 619.776 372.496H615.848V370.607H619.577C620.287 370.607 620.865 370.505 621.31 370.301C621.759 370.098 622.089 369.802 622.297 369.413C622.505 369.025 622.609 368.559 622.609 368.014C622.609 367.465 622.503 366.989 622.29 366.587C622.081 366.184 621.752 365.876 621.303 365.663C620.857 365.446 620.273 365.337 619.548 365.337H616.793V378H614.598ZM621.778 371.438L625.372 378H622.872L619.349 371.438H621.778ZM627.318 382.091V367.091H629.392V368.859H629.57C629.693 368.632 629.87 368.369 630.102 368.071C630.334 367.773 630.656 367.512 631.068 367.29C631.48 367.062 632.025 366.949 632.702 366.949C633.582 366.949 634.368 367.171 635.06 367.616C635.751 368.062 636.293 368.703 636.686 369.541C637.084 370.379 637.283 371.388 637.283 372.567C637.283 373.746 637.086 374.757 636.693 375.599C636.3 376.437 635.76 377.084 635.074 377.538C634.387 377.988 633.604 378.213 632.723 378.213C632.06 378.213 631.518 378.102 631.097 377.879C630.68 377.657 630.353 377.396 630.116 377.098C629.88 376.8 629.697 376.535 629.57 376.303H629.442V382.091H627.318ZM629.399 372.545C629.399 373.312 629.51 373.985 629.733 374.562C629.955 375.14 630.277 375.592 630.699 375.919C631.12 376.241 631.636 376.402 632.247 376.402C632.882 376.402 633.412 376.234 633.838 375.898C634.264 375.557 634.586 375.095 634.804 374.513C635.027 373.93 635.138 373.275 635.138 372.545C635.138 371.826 635.029 371.179 634.811 370.607C634.598 370.034 634.276 369.581 633.845 369.25C633.419 368.919 632.886 368.753 632.247 368.753C631.632 368.753 631.111 368.911 630.685 369.229C630.263 369.546 629.944 369.989 629.726 370.557C629.508 371.125 629.399 371.788 629.399 372.545ZM650.445 363.455V378H648.243V365.656H648.158L644.678 367.929V365.827L648.307 363.455H650.445ZM659.444 378.241C658.321 378.237 657.363 377.941 656.567 377.354C655.772 376.767 655.163 375.912 654.742 374.79C654.32 373.668 654.11 372.316 654.11 370.734C654.11 369.158 654.32 367.811 654.742 366.693C655.168 365.576 655.779 364.723 656.574 364.136C657.374 363.549 658.331 363.256 659.444 363.256C660.556 363.256 661.51 363.552 662.306 364.143C663.101 364.731 663.71 365.583 664.131 366.7C664.557 367.813 664.77 369.158 664.77 370.734C664.77 372.321 664.56 373.675 664.138 374.797C663.717 375.914 663.108 376.769 662.313 377.361C661.517 377.948 660.561 378.241 659.444 378.241ZM659.444 376.345C660.428 376.345 661.198 375.865 661.752 374.903C662.31 373.942 662.59 372.553 662.59 370.734C662.59 369.527 662.462 368.507 662.206 367.673C661.955 366.835 661.593 366.201 661.12 365.77C660.651 365.334 660.092 365.116 659.444 365.116C658.463 365.116 657.694 365.599 657.135 366.565C656.577 367.531 656.295 368.921 656.29 370.734C656.29 371.946 656.416 372.972 656.667 373.81C656.922 374.643 657.284 375.275 657.753 375.706C658.222 376.132 658.785 376.345 659.444 376.345ZM672.354 378.241C671.232 378.237 670.273 377.941 669.477 377.354C668.682 376.767 668.073 375.912 667.652 374.79C667.231 373.668 667.02 372.316 667.02 370.734C667.02 369.158 667.231 367.811 667.652 366.693C668.078 365.576 668.689 364.723 669.484 364.136C670.285 363.549 671.241 363.256 672.354 363.256C673.466 363.256 674.42 363.552 675.216 364.143C676.011 364.731 676.62 365.583 677.041 366.7C677.467 367.813 677.68 369.158 677.68 370.734C677.68 372.321 677.47 373.675 677.048 374.797C676.627 375.914 676.018 376.769 675.223 377.361C674.428 377.948 673.471 378.241 672.354 378.241ZM672.354 376.345C673.339 376.345 674.108 375.865 674.662 374.903C675.221 373.942 675.5 372.553 675.5 370.734C675.5 369.527 675.372 368.507 675.116 367.673C674.866 366.835 674.503 366.201 674.03 365.77C673.561 365.334 673.002 365.116 672.354 365.116C671.374 365.116 670.604 365.599 670.045 366.565C669.487 367.531 669.205 368.921 669.2 370.734C669.2 371.946 669.326 372.972 669.577 373.81C669.832 374.643 670.195 375.275 670.663 375.706C671.132 376.132 671.696 376.345 672.354 376.345ZM685.264 378.241C684.142 378.237 683.183 377.941 682.387 377.354C681.592 376.767 680.984 375.912 680.562 374.79C680.141 373.668 679.93 372.316 679.93 370.734C679.93 369.158 680.141 367.811 680.562 366.693C680.988 365.576 681.599 364.723 682.395 364.136C683.195 363.549 684.151 363.256 685.264 363.256C686.377 363.256 687.331 363.552 688.126 364.143C688.922 364.731 689.53 365.583 689.951 366.7C690.377 367.813 690.591 369.158 690.591 370.734C690.591 372.321 690.38 373.675 689.958 374.797C689.537 375.914 688.929 376.769 688.133 377.361C687.338 377.948 686.381 378.241 685.264 378.241ZM685.264 376.345C686.249 376.345 687.018 375.865 687.572 374.903C688.131 373.942 688.41 372.553 688.41 370.734C688.41 369.527 688.282 368.507 688.027 367.673C687.776 366.835 687.413 366.201 686.94 365.77C686.471 365.334 685.913 365.116 685.264 365.116C684.284 365.116 683.514 365.599 682.956 366.565C682.397 367.531 682.115 368.921 682.11 370.734C682.11 371.946 682.236 372.972 682.487 373.81C682.743 374.643 683.105 375.275 683.574 375.706C684.042 376.132 684.606 376.345 685.264 376.345ZM698.678 362.773L693.991 380.188H692.094L696.782 362.773H698.678ZM702.435 374.3L702.421 371.707H702.79L707.137 367.091H709.68L704.722 372.347H704.388L702.435 374.3ZM700.482 378V363.455H702.606V378H700.482ZM707.371 378L703.465 372.815L704.928 371.331L709.978 378H707.371ZM715.74 382.318C714.873 382.318 714.127 382.205 713.502 381.977C712.882 381.75 712.376 381.449 711.983 381.075C711.59 380.701 711.296 380.292 711.102 379.847L712.927 379.094C713.055 379.302 713.225 379.522 713.439 379.754C713.656 379.991 713.95 380.192 714.319 380.358C714.693 380.524 715.174 380.607 715.761 380.607C716.566 380.607 717.231 380.41 717.757 380.017C718.282 379.629 718.545 379.009 718.545 378.156V376.011H718.41C718.282 376.243 718.098 376.501 717.856 376.786C717.619 377.07 717.293 377.316 716.876 377.524C716.459 377.732 715.917 377.837 715.25 377.837C714.388 377.837 713.611 377.635 712.92 377.233C712.234 376.826 711.689 376.227 711.287 375.436C710.889 374.641 710.69 373.663 710.69 372.503C710.69 371.343 710.886 370.348 711.279 369.52C711.677 368.691 712.222 368.057 712.913 367.616C713.604 367.171 714.388 366.949 715.264 366.949C715.941 366.949 716.488 367.062 716.904 367.29C717.321 367.512 717.645 367.773 717.877 368.071C718.114 368.369 718.297 368.632 718.424 368.859H718.581V367.091H720.662V378.241C720.662 379.179 720.444 379.948 720.008 380.55C719.573 381.151 718.983 381.596 718.24 381.885C717.501 382.174 716.668 382.318 715.74 382.318ZM715.718 376.075C716.329 376.075 716.845 375.933 717.267 375.649C717.693 375.36 718.015 374.948 718.233 374.413C718.455 373.874 718.566 373.227 718.566 372.474C718.566 371.741 718.458 371.094 718.24 370.536C718.022 369.977 717.702 369.541 717.281 369.229C716.859 368.911 716.339 368.753 715.718 368.753C715.079 368.753 714.547 368.919 714.12 369.25C713.694 369.577 713.372 370.022 713.154 370.585C712.941 371.149 712.835 371.778 712.835 372.474C712.835 373.189 712.944 373.817 713.162 374.357C713.379 374.896 713.701 375.318 714.127 375.621C714.558 375.924 715.089 376.075 715.718 376.075Z" fill="white"/>
<path d="M275 220H480C496.569 220 510 233.431 510 250V417H305C288.431 417 275 403.569 275 387V220Z" fill="#0B8A48"/>
<path d="M351.793 338V319.818H355.087V328.172H355.309L362.402 319.818H366.424L359.393 327.977L366.486 338H362.527L357.102 330.205L355.087 332.585V338H351.793ZM372.494 338.275C371.63 338.275 370.852 338.121 370.159 337.814C369.473 337.5 368.928 337.038 368.526 336.429C368.129 335.819 367.931 335.067 367.931 334.174C367.931 333.404 368.073 332.768 368.357 332.265C368.641 331.762 369.029 331.359 369.52 331.058C370.011 330.756 370.565 330.528 371.18 330.374C371.802 330.214 372.444 330.099 373.107 330.028C373.906 329.945 374.554 329.871 375.051 329.806C375.548 329.735 375.909 329.628 376.134 329.486C376.365 329.338 376.48 329.11 376.48 328.803V328.749C376.48 328.08 376.282 327.563 375.886 327.196C375.489 326.829 374.918 326.645 374.172 326.645C373.385 326.645 372.761 326.817 372.299 327.16C371.843 327.503 371.535 327.909 371.376 328.376L368.375 327.95C368.612 327.122 369.002 326.429 369.547 325.873C370.091 325.311 370.757 324.89 371.544 324.612C372.331 324.328 373.201 324.186 374.154 324.186C374.811 324.186 375.465 324.263 376.116 324.417C376.767 324.571 377.362 324.825 377.901 325.18C378.439 325.53 378.871 326.006 379.197 326.61C379.528 327.213 379.694 327.968 379.694 328.874V338H376.605V336.127H376.498C376.303 336.506 376.028 336.861 375.672 337.192C375.323 337.518 374.882 337.781 374.35 337.982C373.823 338.178 373.204 338.275 372.494 338.275ZM373.329 335.914C373.974 335.914 374.533 335.786 375.007 335.532C375.48 335.272 375.844 334.928 376.099 334.502C376.359 334.076 376.489 333.611 376.489 333.108V331.501C376.389 331.584 376.217 331.661 375.974 331.732C375.738 331.803 375.471 331.865 375.175 331.919C374.879 331.972 374.586 332.019 374.296 332.061C374.006 332.102 373.755 332.138 373.542 332.167C373.062 332.232 372.633 332.339 372.255 332.487C371.876 332.635 371.577 332.842 371.358 333.108C371.139 333.369 371.029 333.706 371.029 334.12C371.029 334.712 371.245 335.159 371.677 335.461C372.11 335.763 372.66 335.914 373.329 335.914ZM382.926 338V324.364H386.042V326.636H386.184C386.432 325.849 386.859 325.243 387.462 324.816C388.072 324.384 388.767 324.168 389.549 324.168C389.726 324.168 389.924 324.177 390.143 324.195C390.368 324.207 390.555 324.228 390.703 324.257V327.213C390.567 327.166 390.351 327.125 390.055 327.089C389.765 327.048 389.483 327.027 389.211 327.027C388.625 327.027 388.099 327.154 387.631 327.409C387.169 327.657 386.805 328.004 386.539 328.447C386.273 328.891 386.139 329.403 386.139 329.983V338H382.926ZM397.337 338.24C396.265 338.24 395.307 337.964 394.46 337.414C393.614 336.864 392.945 336.065 392.454 335.017C391.963 333.969 391.717 332.697 391.717 331.2C391.717 329.684 391.966 328.406 392.463 327.364C392.966 326.317 393.643 325.527 394.496 324.994C395.348 324.455 396.298 324.186 397.346 324.186C398.145 324.186 398.801 324.322 399.316 324.594C399.831 324.861 400.24 325.183 400.542 325.562C400.843 325.935 401.077 326.287 401.243 326.619H401.376V319.818H404.599V338H401.438V335.852H401.243C401.077 336.183 400.837 336.535 400.524 336.908C400.21 337.275 399.796 337.589 399.281 337.849C398.766 338.109 398.118 338.24 397.337 338.24ZM398.233 335.603C398.914 335.603 399.494 335.42 399.973 335.053C400.453 334.68 400.817 334.162 401.065 333.499C401.314 332.836 401.438 332.064 401.438 331.182C401.438 330.3 401.314 329.533 401.065 328.882C400.823 328.231 400.462 327.725 399.982 327.364C399.509 327.003 398.926 326.823 398.233 326.823C397.517 326.823 396.919 327.009 396.44 327.382C395.961 327.755 395.6 328.27 395.357 328.927C395.114 329.584 394.993 330.335 394.993 331.182C394.993 332.034 395.114 332.795 395.357 333.463C395.605 334.126 395.969 334.65 396.449 335.035C396.934 335.414 397.529 335.603 398.233 335.603ZM416.715 332.265V324.364H419.929V338H416.812V335.576H416.67C416.363 336.34 415.857 336.964 415.152 337.45C414.454 337.935 413.593 338.178 412.569 338.178C411.675 338.178 410.885 337.979 410.198 337.583C409.518 337.18 408.985 336.597 408.6 335.834C408.216 335.064 408.023 334.135 408.023 333.046V324.364H411.237V332.549C411.237 333.413 411.474 334.1 411.947 334.609C412.421 335.118 413.042 335.372 413.812 335.372C414.285 335.372 414.744 335.257 415.188 335.026C415.632 334.795 415.996 334.452 416.28 333.996C416.57 333.534 416.715 332.957 416.715 332.265ZM434.011 327.968L431.081 328.288C430.998 327.992 430.853 327.714 430.646 327.453C430.445 327.193 430.173 326.983 429.83 326.823C429.486 326.663 429.066 326.583 428.569 326.583C427.9 326.583 427.338 326.728 426.882 327.018C426.432 327.308 426.21 327.684 426.216 328.146C426.21 328.542 426.355 328.865 426.651 329.113C426.953 329.362 427.45 329.566 428.143 329.726L430.469 330.223C431.759 330.501 432.718 330.942 433.345 331.546C433.978 332.15 434.298 332.94 434.304 333.916C434.298 334.774 434.047 335.532 433.549 336.189C433.058 336.84 432.375 337.349 431.499 337.716C430.623 338.083 429.616 338.266 428.48 338.266C426.811 338.266 425.468 337.917 424.45 337.219C423.432 336.514 422.825 335.535 422.63 334.28L425.763 333.978C425.906 334.594 426.207 335.058 426.669 335.372C427.131 335.686 427.731 335.843 428.471 335.843C429.235 335.843 429.847 335.686 430.309 335.372C430.777 335.058 431.01 334.671 431.01 334.209C431.01 333.819 430.859 333.496 430.558 333.241C430.262 332.987 429.8 332.792 429.173 332.656L426.847 332.167C425.539 331.895 424.571 331.436 423.944 330.791C423.316 330.14 423.005 329.317 423.011 328.323C423.005 327.483 423.233 326.755 423.695 326.139C424.163 325.518 424.811 325.038 425.639 324.701C426.474 324.358 427.435 324.186 428.525 324.186C430.123 324.186 431.38 324.526 432.298 325.207C433.221 325.888 433.792 326.808 434.011 327.968Z" fill="white"/>
<path d="M335.598 373V358.455H340.783C341.91 358.455 342.845 358.649 343.588 359.037C344.336 359.425 344.895 359.963 345.264 360.649C345.634 361.331 345.818 362.119 345.818 363.014C345.818 363.904 345.631 364.688 345.257 365.365C344.888 366.037 344.329 366.561 343.581 366.935C342.838 367.309 341.902 367.496 340.776 367.496H336.848V365.607H340.577C341.287 365.607 341.865 365.505 342.31 365.301C342.759 365.098 343.089 364.802 343.297 364.413C343.505 364.025 343.609 363.559 343.609 363.014C343.609 362.465 343.503 361.989 343.29 361.587C343.081 361.184 342.752 360.876 342.303 360.663C341.857 360.446 341.273 360.337 340.548 360.337H337.793V373H335.598ZM342.778 366.438L346.372 373H343.872L340.349 366.438H342.778ZM348.318 377.091V362.091H350.392V363.859H350.57C350.693 363.632 350.87 363.369 351.102 363.071C351.334 362.773 351.656 362.512 352.068 362.29C352.48 362.062 353.025 361.949 353.702 361.949C354.582 361.949 355.368 362.171 356.06 362.616C356.751 363.062 357.293 363.703 357.686 364.541C358.084 365.379 358.283 366.388 358.283 367.567C358.283 368.746 358.086 369.757 357.693 370.599C357.3 371.437 356.76 372.084 356.074 372.538C355.387 372.988 354.604 373.213 353.723 373.213C353.06 373.213 352.518 373.102 352.097 372.879C351.68 372.657 351.353 372.396 351.116 372.098C350.88 371.8 350.697 371.535 350.57 371.303H350.442V377.091H348.318ZM350.399 367.545C350.399 368.312 350.51 368.985 350.733 369.562C350.955 370.14 351.277 370.592 351.699 370.919C352.12 371.241 352.636 371.402 353.247 371.402C353.882 371.402 354.412 371.234 354.838 370.898C355.264 370.557 355.586 370.095 355.804 369.513C356.027 368.93 356.138 368.275 356.138 367.545C356.138 366.826 356.029 366.179 355.811 365.607C355.598 365.034 355.276 364.581 354.845 364.25C354.419 363.919 353.886 363.753 353.247 363.753C352.632 363.753 352.111 363.911 351.685 364.229C351.263 364.546 350.944 364.989 350.726 365.557C350.508 366.125 350.399 366.788 350.399 367.545ZM365.926 373V371.409L370.848 366.31C371.374 365.756 371.807 365.27 372.148 364.854C372.494 364.432 372.752 364.032 372.922 363.653C373.093 363.275 373.178 362.872 373.178 362.446C373.178 361.963 373.064 361.546 372.837 361.196C372.61 360.841 372.3 360.569 371.907 360.379C371.514 360.185 371.071 360.088 370.578 360.088C370.058 360.088 369.603 360.195 369.215 360.408C368.827 360.621 368.528 360.921 368.32 361.31C368.112 361.698 368.007 362.152 368.007 362.673H365.912C365.912 361.788 366.116 361.014 366.523 360.351C366.93 359.688 367.489 359.174 368.199 358.81C368.909 358.44 369.717 358.256 370.621 358.256C371.535 358.256 372.34 358.438 373.036 358.803C373.737 359.162 374.283 359.655 374.676 360.28C375.069 360.9 375.266 361.601 375.266 362.382C375.266 362.922 375.164 363.45 374.961 363.966C374.762 364.482 374.414 365.057 373.917 365.692C373.419 366.321 372.728 367.086 371.843 367.986L368.952 371.011V371.118H375.5V373H365.926ZM379.62 373.135C379.231 373.135 378.898 372.998 378.618 372.723C378.339 372.444 378.199 372.107 378.199 371.714C378.199 371.326 378.339 370.995 378.618 370.72C378.898 370.441 379.231 370.301 379.62 370.301C380.008 370.301 380.342 370.441 380.621 370.72C380.9 370.995 381.04 371.326 381.04 371.714C381.04 371.975 380.974 372.214 380.841 372.432C380.713 372.645 380.543 372.815 380.33 372.943C380.117 373.071 379.88 373.135 379.62 373.135ZM388.423 373.199C387.533 373.199 386.733 373.028 386.022 372.688C385.317 372.342 384.753 371.868 384.332 371.267C383.911 370.666 383.686 369.979 383.657 369.207H385.788C385.84 369.832 386.117 370.346 386.619 370.749C387.121 371.151 387.722 371.352 388.423 371.352C388.982 371.352 389.476 371.224 389.907 370.969C390.343 370.708 390.684 370.351 390.93 369.896C391.181 369.442 391.306 368.923 391.306 368.341C391.306 367.749 391.179 367.221 390.923 366.757C390.667 366.293 390.315 365.929 389.865 365.663C389.42 365.398 388.908 365.263 388.331 365.259C387.89 365.259 387.448 365.334 387.002 365.486C386.557 365.637 386.198 365.836 385.923 366.082L383.913 365.784L384.73 358.455H392.727V360.337H386.555L386.093 364.406H386.179C386.463 364.132 386.839 363.902 387.308 363.717C387.781 363.533 388.288 363.44 388.828 363.44C389.713 363.44 390.502 363.651 391.193 364.072C391.889 364.494 392.436 365.069 392.833 365.798C393.236 366.523 393.435 367.356 393.43 368.298C393.435 369.241 393.222 370.081 392.791 370.82C392.365 371.558 391.773 372.141 391.015 372.567C390.262 372.988 389.398 373.199 388.423 373.199ZM401.088 373.241C399.966 373.237 399.007 372.941 398.212 372.354C397.416 371.767 396.808 370.912 396.386 369.79C395.965 368.668 395.754 367.316 395.754 365.734C395.754 364.158 395.965 362.811 396.386 361.693C396.813 360.576 397.423 359.723 398.219 359.136C399.019 358.549 399.975 358.256 401.088 358.256C402.201 358.256 403.155 358.552 403.95 359.143C404.746 359.731 405.354 360.583 405.776 361.7C406.202 362.813 406.415 364.158 406.415 365.734C406.415 367.321 406.204 368.675 405.783 369.797C405.361 370.914 404.753 371.769 403.957 372.361C403.162 372.948 402.205 373.241 401.088 373.241ZM401.088 371.345C402.073 371.345 402.842 370.865 403.396 369.903C403.955 368.942 404.234 367.553 404.234 365.734C404.234 364.527 404.107 363.507 403.851 362.673C403.6 361.835 403.238 361.201 402.764 360.77C402.295 360.334 401.737 360.116 401.088 360.116C400.108 360.116 399.339 360.599 398.78 361.565C398.221 362.531 397.939 363.921 397.935 365.734C397.935 366.946 398.06 367.972 398.311 368.81C398.567 369.643 398.929 370.275 399.398 370.706C399.866 371.132 400.43 371.345 401.088 371.345ZM413.998 373.241C412.876 373.237 411.917 372.941 411.122 372.354C410.326 371.767 409.718 370.912 409.297 369.79C408.875 368.668 408.664 367.316 408.664 365.734C408.664 364.158 408.875 362.811 409.297 361.693C409.723 360.576 410.333 359.723 411.129 359.136C411.929 358.549 412.886 358.256 413.998 358.256C415.111 358.256 416.065 358.552 416.86 359.143C417.656 359.731 418.264 360.583 418.686 361.7C419.112 362.813 419.325 364.158 419.325 365.734C419.325 367.321 419.114 368.675 418.693 369.797C418.271 370.914 417.663 371.769 416.868 372.361C416.072 372.948 415.116 373.241 413.998 373.241ZM413.998 371.345C414.983 371.345 415.752 370.865 416.306 369.903C416.865 368.942 417.145 367.553 417.145 365.734C417.145 364.527 417.017 363.507 416.761 362.673C416.51 361.835 416.148 361.201 415.674 360.77C415.206 360.334 414.647 360.116 413.998 360.116C413.018 360.116 412.249 360.599 411.69 361.565C411.131 362.531 410.85 363.921 410.845 365.734C410.845 366.946 410.97 367.972 411.221 368.81C411.477 369.643 411.839 370.275 412.308 370.706C412.777 371.132 413.34 371.345 413.998 371.345ZM427.413 357.773L422.725 375.188H420.829L425.516 357.773H427.413ZM431.17 369.3L431.156 366.707H431.525L435.871 362.091H438.414L433.457 367.347H433.123L431.17 369.3ZM429.217 373V358.455H431.34V373H429.217ZM436.106 373L432.2 367.815L433.663 366.331L438.712 373H436.106ZM444.474 377.318C443.608 377.318 442.862 377.205 442.237 376.977C441.617 376.75 441.11 376.449 440.717 376.075C440.324 375.701 440.03 375.292 439.836 374.847L441.662 374.094C441.789 374.302 441.96 374.522 442.173 374.754C442.391 374.991 442.684 375.192 443.054 375.358C443.428 375.524 443.908 375.607 444.495 375.607C445.3 375.607 445.966 375.41 446.491 375.017C447.017 374.629 447.279 374.009 447.279 373.156V371.011H447.145C447.017 371.243 446.832 371.501 446.591 371.786C446.354 372.07 446.027 372.316 445.61 372.524C445.194 372.732 444.652 372.837 443.984 372.837C443.122 372.837 442.346 372.635 441.654 372.233C440.968 371.826 440.423 371.227 440.021 370.436C439.623 369.641 439.424 368.663 439.424 367.503C439.424 366.343 439.621 365.348 440.014 364.52C440.412 363.691 440.956 363.057 441.647 362.616C442.339 362.171 443.122 361.949 443.998 361.949C444.675 361.949 445.222 362.062 445.639 362.29C446.056 362.512 446.38 362.773 446.612 363.071C446.849 363.369 447.031 363.632 447.159 363.859H447.315V362.091H449.396V373.241C449.396 374.179 449.178 374.948 448.743 375.55C448.307 376.151 447.717 376.596 446.974 376.885C446.235 377.174 445.402 377.318 444.474 377.318ZM444.453 371.075C445.064 371.075 445.58 370.933 446.001 370.649C446.427 370.36 446.749 369.948 446.967 369.413C447.19 368.874 447.301 368.227 447.301 367.474C447.301 366.741 447.192 366.094 446.974 365.536C446.756 364.977 446.437 364.541 446.015 364.229C445.594 363.911 445.073 363.753 444.453 363.753C443.814 363.753 443.281 363.919 442.855 364.25C442.429 364.577 442.107 365.022 441.889 365.585C441.676 366.149 441.569 366.778 441.569 367.474C441.569 368.189 441.678 368.817 441.896 369.357C442.114 369.896 442.436 370.318 442.862 370.621C443.293 370.924 443.823 371.075 444.453 371.075Z" fill="white"/>
<path d="M422.204 259.667L394.283 247.267C393.476 246.911 392.567 246.911 391.761 247.267L363.84 259.667C363.778 259.695 363.734 259.742 363.672 259.776C363.585 259.819 363.492 259.847 363.412 259.9C363.343 259.946 363.291 260.005 363.225 260.055C363.139 260.12 363.055 260.191 362.977 260.266C362.85 260.387 362.738 260.517 362.636 260.656C362.574 260.743 362.509 260.821 362.453 260.907C362.357 261.072 362.285 261.242 362.217 261.419C362.189 261.503 362.146 261.58 362.121 261.664C362.047 261.933 362 262.212 362 262.501V293.501C362 294.728 362.72 295.835 363.843 296.334L391.764 308.734C392.167 308.914 392.595 309.001 393.024 309.001C393.455 309.001 393.87 308.88 394.271 308.703L394.283 308.734L422.204 296.334C423.327 295.835 424.047 294.728 424.047 293.501V262.501C424.047 261.273 423.327 260.166 422.204 259.667ZM393.024 253.495L413.307 262.501L393.024 271.506L388.966 269.705L372.743 262.501L393.024 253.495ZM368.205 291.489V267.272L389.921 276.916V301.13L368.205 291.489ZM396.126 301.13V276.916L417.842 267.272V291.489L396.126 301.13Z" fill="white"/>
</svg>
