<svg width="100" height="95" viewBox="0 0 100 95" fill="none" xmlns="http://www.w3.org/2000/svg">
<path d="M22.0025 94.4162H77.0088C79.7481 94.4162 82.0694 92.6884 82.4544 90.3658L92.7791 28.3249H99.0113V18.8832H91.4094L81.9263 2.61061C80.9967 1.01025 79.0935 0 77.0088 0H22.0025C19.9178 0 18.0146 1.01025 17.0794 2.61061L7.60187 18.8832H0V28.3249H6.23221L16.5569 90.3658C16.9419 92.6884 19.2632 94.4162 22.0025 94.4162ZM79.308 42.4873H19.7032L17.3435 28.3249H81.6623L79.308 42.4873ZM26.7716 84.9746L24.4118 70.8122H74.594L72.2342 84.9746H26.7716ZM25.4019 9.44162H73.6094L79.11 18.8832H19.9013L25.4019 9.44162Z" fill="#0B573B"/>
</svg>
