<svg width="48" height="43" viewBox="0 0 48 43" fill="none" xmlns="http://www.w3.org/2000/svg">
<path d="M20.4828 36.7757C25.0865 36.7757 29.3187 35.3162 32.6954 32.8959L43.6586 43L47.185 39.7499L36.2218 29.6458C38.8504 26.5314 40.434 22.6309 40.434 18.3879C40.434 8.24925 31.4834 0 20.4828 0C9.48213 0 0.531494 8.24925 0.531494 18.3879C0.531494 28.5265 9.48213 36.7757 20.4828 36.7757ZM20.4828 4.59696C28.7351 4.59696 35.4462 10.7822 35.4462 18.3879C35.4462 25.9935 28.7351 32.1787 20.4828 32.1787C12.2304 32.1787 5.51931 25.9935 5.51931 18.3879C5.51931 10.7822 12.2304 4.59696 20.4828 4.59696Z" fill="#0B573B"/>
</svg>
