<svg width="135" height="93" viewBox="0 0 135 93" fill="none" xmlns="http://www.w3.org/2000/svg">
<path d="M67.2851 0C33.8444 0 0 10.9747 0 31.9445V60.3397C0 81.3095 33.8444 92.2842 67.2851 92.2842C100.726 92.2842 134.57 81.3095 134.57 60.3397V31.9445C134.57 10.9747 100.726 0 67.2851 0ZM13.457 60.3397V51.8425C17.3326 54.2205 21.8744 56.265 26.914 57.9474V71.3002C18.0862 67.6515 13.457 63.307 13.457 60.3397ZM94.1991 61.3903V75.382C88.3655 76.6527 81.637 77.5826 74.0136 77.9234V63.7258C80.9305 63.4277 87.7465 62.6326 94.1991 61.3903ZM60.5566 77.9305C52.9332 77.5898 46.2047 76.6598 40.3711 75.3891V61.3974C46.8237 62.6326 53.6397 63.4348 60.5566 63.74V77.9305ZM107.656 71.3002V57.9474C112.696 56.265 117.238 54.2276 121.113 51.8425V60.3397C121.113 63.307 116.491 67.6515 107.656 71.3002ZM67.2851 49.6915C32.4516 49.6915 13.457 37.9714 13.457 31.9445C13.457 25.9177 32.4516 14.1976 67.2851 14.1976C102.119 14.1976 121.113 25.9177 121.113 31.9445C121.113 37.9714 102.119 49.6915 67.2851 49.6915Z" fill="#0B573B"/>
</svg>
