<svg width="106" height="95" viewBox="0 0 106 95" fill="none" xmlns="http://www.w3.org/2000/svg">
<path d="M102.475 19.2904L54.95 0.40717C53.577 -0.135723 52.0298 -0.135723 50.6568 0.40717L3.1314 19.2904C3.02578 19.3329 2.95186 19.4037 2.84624 19.4556C2.69839 19.5217 2.53997 19.5642 2.40267 19.6445C2.2865 19.7153 2.19673 19.805 2.08584 19.8805C1.93798 19.9797 1.79541 20.0882 1.66339 20.2015C1.44689 20.3856 1.25678 20.5839 1.08252 20.7964C0.976911 20.9285 0.866018 21.0466 0.770967 21.1787C0.607269 21.4289 0.485815 21.6886 0.369642 21.9577C0.322116 22.0851 0.248188 22.2032 0.205944 22.3306C0.0792092 22.7413 0 23.1662 0 23.6052V70.8134C0 72.6828 1.2251 74.3681 3.13668 75.1282L50.6621 94.0114C51.3486 94.2852 52.0773 94.4174 52.806 94.4174C53.54 94.4174 54.2476 94.2333 54.9288 93.9642L54.95 94.0114L102.475 75.1282C104.387 74.3681 105.612 72.6828 105.612 70.8134V23.6052C105.612 21.7358 104.387 20.0505 102.475 19.2904ZM52.806 9.89128L87.3306 23.6052L52.806 37.3192L45.899 34.5764L18.2867 23.6052L52.806 9.89128ZM10.5612 67.7495V30.8706L47.5254 45.557V82.4313L10.5612 67.7495ZM58.0866 82.4313V45.557L95.0508 30.8706V67.7495L58.0866 82.4313Z" fill="#0B573B"/>
</svg>
