<svg width="63" height="62" viewBox="0 0 63 62" fill="none" xmlns="http://www.w3.org/2000/svg">
<path d="M58.9447 0H37.2282C34.8363 0 32.674 0.98221 31.0235 2.54526C29.3731 0.98221 27.2107 0 24.8188 0H3.10235C1.38675 0 0 1.46189 0 3.26316V52.2105C0 54.0151 1.38675 55.4737 3.10235 55.4737H20.9657C22.5975 55.4737 24.1984 56.172 25.3524 57.3859L28.8302 61.0439C28.8581 61.0733 28.8953 61.0831 28.9232 61.1124C29.19 61.3702 29.4879 61.5986 29.8353 61.752H29.8415C30.2169 61.9152 30.6171 62 31.0235 62C31.4299 62 31.8301 61.9152 32.2055 61.752H32.2117C32.5592 61.5986 32.857 61.3702 33.1238 61.1124C33.1518 61.0831 33.189 61.0733 33.2169 61.0439L36.6946 57.3859C37.8487 56.172 39.4495 55.4737 41.0814 55.4737H58.9447C60.6603 55.4737 62.0471 54.0151 62.0471 52.2105V3.26316C62.0471 1.46189 60.6603 0 58.9447 0ZM20.9657 48.9474H6.20471V6.52632H24.8188C26.5313 6.52632 27.9212 7.99147 27.9212 9.78947V51.1957C25.8798 49.7501 23.4445 48.9474 20.9657 48.9474ZM55.8424 48.9474H41.0814C38.6026 48.9474 36.1672 49.7501 34.1259 51.1957V9.78947C34.1259 7.99147 35.5157 6.52632 37.2282 6.52632H55.8424V48.9474Z" fill="#0B573B"/>
</svg>
