<svg width="50" height="44" viewBox="0 0 50 44" fill="none" xmlns="http://www.w3.org/2000/svg">
<path d="M49.5538 10.7617C49.0863 10.1059 48.3189 9.71492 47.4989 9.71492H13.3322L10.4473 2.98734C9.66727 1.17065 7.85732 0 5.83236 0H0V4.85746H5.83236L17.6921 32.5086C18.0796 33.412 18.9896 34.0022 19.9995 34.0022H39.9991C41.0415 34.0022 41.974 33.3732 42.3415 32.4284L49.8413 12.9986C50.1288 12.2505 50.0213 11.415 49.5538 10.7617ZM38.2666 29.1448H21.667L15.4171 14.5724H43.8915L38.2666 29.1448Z" fill="#0B573B"/>
<path d="M21.2497 43.7169C23.3207 43.7169 24.9996 42.0858 24.9996 40.0738C24.9996 38.0617 23.3207 36.4307 21.2497 36.4307C19.1786 36.4307 17.4998 38.0617 17.4998 40.0738C17.4998 42.0858 19.1786 43.7169 21.2497 43.7169Z" fill="#0B573B"/>
<path d="M38.7492 43.7169C40.8202 43.7169 42.4991 42.0858 42.4991 40.0738C42.4991 38.0617 40.8202 36.4307 38.7492 36.4307C36.6782 36.4307 34.9993 38.0617 34.9993 40.0738C34.9993 42.0858 36.6782 43.7169 38.7492 43.7169Z" fill="#0B573B"/>
</svg>
