<svg width="98" height="113" viewBox="0 0 98 113" fill="none" xmlns="http://www.w3.org/2000/svg">
<path d="M27.7327 101.567H69.3318V112.853H27.7327V101.567ZM82.5464 66.0866C89.6876 59.2816 97.0645 52.2452 97.0645 39.4985C97.0645 17.7235 75.2874 0 48.5322 0C21.7771 0 0 17.7235 0 39.4985C0 52.3919 7.3977 59.4057 14.5666 66.1881C17.0487 68.5468 19.6209 70.99 22.0822 73.8001C23.0806 74.9624 24.7168 79.4201 26.1797 84.6396H20.7995V95.9249H28.8559H68.2017H76.265V84.6396H70.8987C72.3754 79.4088 74.0186 74.9399 75.01 73.7775C77.4505 70.9392 80.0435 68.4734 82.5464 66.0866ZM63.6604 67.2885C60.6514 70.77 58.1416 78.9969 56.6857 84.6396H40.3858C38.9367 78.9856 36.42 70.7418 33.3763 67.2602C30.5545 64.0327 27.6495 61.2734 25.0842 58.8414C18.3313 52.4427 13.8664 48.2107 13.8664 39.4985C13.8664 23.9417 29.4175 11.2853 48.5322 11.2853C67.647 11.2853 83.1981 23.9417 83.1981 39.4985C83.1981 48.0809 78.7401 52.3298 72.0011 58.7568C69.415 61.2283 66.4822 64.0214 63.6604 67.2885Z" fill="#0B573B"/>
</svg>
