<svg width="50" height="44" viewBox="0 0 50 44" fill="none" xmlns="http://www.w3.org/2000/svg">
<path d="M42.0998 0L50 6.93187L43.9783 12.2151L36.0781 5.28326L42.0998 0Z" fill="#0B573B"/>
<path d="M13.1661 32.3172H21.0658L40.2541 15.4815L32.3544 8.55029L13.1661 25.3861V32.3172Z" fill="#0B573B"/>
<path d="M42.1317 39.2487H13.5822C13.5137 39.2487 13.4426 39.2718 13.3742 39.2718C13.2873 39.2718 13.2004 39.251 13.1109 39.2487H5.26646V6.90324H23.2962L28.5627 2.28247H5.26646C2.36201 2.28247 0 4.35258 0 6.90324V39.2487C0 41.7993 2.36201 43.8694 5.26646 43.8694H42.1317C45.0388 43.8694 47.3982 41.7993 47.3982 39.2487V19.2222L42.1317 23.843V39.2487Z" fill="#0B573B"/>
</svg>
